<svg width="205" height="123" viewBox="0 0 205 123" fill="none" xmlns="http://www.w3.org/2000/svg">
<g clip-path="url(#clip0)">
<path d="M61.4947 111.542H60.3977C60.3977 105.417 53.8706 103.45 46.961 101.367C39.8124 99.2119 32.4206 96.984 32.4206 89.7357H33.5177C33.5177 96.1692 40.2014 98.1835 47.2776 100.316C54.2666 102.423 61.4947 104.602 61.4947 111.542Z" fill="#1B191C"/>
<path d="M62.5918 111.542H61.4947C61.4947 104.602 68.7226 102.423 75.7121 100.316C82.7883 98.1838 89.4718 96.1694 89.4718 89.736H90.5688C90.5688 96.9842 83.1771 99.2122 76.0286 101.367C69.1188 103.45 62.5918 105.417 62.5918 111.542Z" fill="#1B191C"/>
<path d="M62.0424 111.542H60.9456V122.88H62.0424V111.542Z" fill="#1B191C"/>
<path d="M62.592 111.542H60.3984V114.833H62.592V111.542Z" fill="#1B191C"/>
<path d="M30.7752 85.2096L26.3856 83.016V74.2392L30.7752 72.0456V85.2096Z" fill="#1B191C"/>
<path d="M92.2152 85.2096L96.6024 83.016V74.2392L92.2152 72.0456V85.2096Z" fill="#1B191C"/>
<path d="M30.7752 54.4896H25.2888V63.2664H30.7752V54.4896Z" fill="white"/>
<path d="M41.7461 70.9474C41.7461 68.5332 39.7711 66.5587 37.3574 66.5587H35.1631C32.749 66.5587 30.7745 68.5334 30.7745 70.9474V86.3074C30.7745 88.7213 32.7492 90.6958 35.1631 90.6958H37.3574C39.7714 90.6958 41.7461 88.721 41.7461 86.3074V70.9474Z" fill="#6115ED"/>
<path d="M81.2434 70.9474C81.2434 68.5332 83.2181 66.5587 85.6318 66.5587H87.8263C90.2403 66.5587 92.2147 68.5334 92.2147 70.9474V86.3074C92.2147 88.7213 90.24 90.6958 87.8263 90.6958H85.6318C83.2179 90.6958 81.2434 88.721 81.2434 86.3074V70.9474Z" fill="#6115ED"/>
<path d="M97.7016 54.4896H92.2152V63.2664H97.7016V54.4896Z" fill="white"/>
<path d="M26.4278 54.5004C26.4 53.017 26.3861 51.5366 26.3861 50.1017H27.4831C27.4831 51.5304 27.497 53.003 27.5249 54.48L26.4278 54.5004Z" fill="black"/>
<path d="M27.4308 73.495C27.4274 73.4537 27.0321 69.3024 26.7321 63.2945L27.8273 63.2397C28.1268 69.2206 28.5194 73.3493 28.5238 73.3898L27.4308 73.495Z" fill="black"/>
<path d="M95.5586 73.495L94.4657 73.3898C94.47 73.3493 94.8624 69.2206 95.1619 63.2397L96.257 63.2945C95.957 69.3026 95.5618 73.4539 95.5586 73.495Z" fill="black"/>
<path d="M96.5614 54.5004L95.4643 54.48C95.4922 53.003 95.5063 51.5304 95.5063 50.1017H96.6034C96.6034 51.5366 96.5892 53.017 96.5614 54.5004Z" fill="black"/>
<path d="M29.1288 54.4901H28.0318C28.0318 46.0325 31.2012 37.9558 36.9552 31.7491L37.7602 32.4948C32.1943 38.4979 29.1288 46.3099 29.1288 54.4901Z" fill="black"/>
<path d="M94.9574 54.4901H93.8604C93.8604 46.3099 90.7951 38.4979 85.2295 32.495L86.0342 31.7494C91.7882 37.9558 94.9574 46.0325 94.9574 54.4901Z" fill="black"/>
<path d="M61.4947 19.5821C51.3065 19.5821 42.1351 23.9234 35.7117 30.8479L37.8756 33.6113C43.8413 27.8599 52.2139 24.2726 61.4947 24.2726C70.7755 24.2726 79.1481 27.8599 85.1138 33.6118L87.2777 30.8479C80.8543 23.9234 71.6829 19.5821 61.4947 19.5821Z" fill="white"/>
<path d="M37.3574 66.5587H35.1631C32.749 66.5587 30.7745 68.5334 30.7745 70.9474V79.7244V86.3074C30.7745 88.7213 32.7492 90.6958 35.1631 90.6958H37.3574C39.7714 90.6958 41.7461 88.721 41.7461 86.3074V79.7244V70.9474C41.7461 68.5334 39.7714 66.5587 37.3574 66.5587Z" fill="white"/>
<path d="M87.8261 66.5587H85.6315C83.2176 66.5587 81.2431 68.5334 81.2431 70.9474V79.7244V86.3074C81.2431 88.7213 83.2179 90.6958 85.6315 90.6958H87.8261C90.24 90.6958 92.2145 88.721 92.2145 86.3074V79.7244V70.9474C92.2147 68.5334 90.24 66.5587 87.8261 66.5587Z" fill="white"/>
<path d="M76.452 80.4929C77.1128 80.5768 77.5937 80.4945 77.8927 80.2548L82.5859 76.4933C82.4578 76.5959 82.2944 76.6677 82.1002 76.7119L82.5003 76.3911C81.2883 77.3625 77.1516 75.7005 71.1941 71.5471C70.9292 71.3623 70.6637 71.1746 70.3975 70.9843C70.3876 70.9772 70.3778 70.9703 70.3681 70.9632C70.1088 70.7776 69.8507 70.5905 69.5936 70.402L69.5385 70.362C69.2857 70.1763 69.0338 69.9893 68.783 69.801C68.7578 69.7821 68.7329 69.7637 68.7079 69.7448C68.4589 69.5577 68.2108 69.3693 67.9638 69.1797C67.9357 69.1581 67.9078 69.137 67.8796 69.1153C67.631 68.9243 67.3826 68.7312 67.1346 68.5368C67.1025 68.5116 67.0702 68.4865 67.0383 68.4616C66.792 68.268 66.5461 68.0728 66.3005 67.876C66.2682 67.8504 66.2362 67.8246 66.2041 67.7991C65.958 67.6015 65.7125 67.4025 65.4675 67.2025L65.3747 67.1264C65.1298 66.9258 64.8857 66.724 64.6426 66.5211C64.6143 66.4976 64.586 66.4741 64.5578 66.4504C64.1877 66.1411 63.8197 65.8295 63.4537 65.5154C63.4254 65.4911 63.3973 65.4668 63.3689 65.4426C63.0064 65.1308 62.6462 64.817 62.2889 64.5018C62.2577 64.4743 62.2265 64.4468 62.1954 64.4191C61.614 63.9051 61.038 63.3851 60.4676 62.8589L60.4296 62.824C60.212 62.6229 59.9952 62.4208 59.7791 62.218C59.752 62.1924 59.7245 62.1668 59.6975 62.1414C59.4906 61.9468 59.2845 61.7513 59.0793 61.5549C59.0434 61.5205 59.0072 61.486 58.9712 61.4516C58.801 61.2884 58.6314 61.1247 58.4623 60.9604C58.4282 60.9271 58.3944 60.894 58.3602 60.8608C58.2113 60.7156 58.0628 60.57 57.9148 60.4239C57.8819 60.3914 57.8487 60.3589 57.8161 60.3265C57.6697 60.1816 57.5246 60.0372 57.3806 59.8927C57.3443 59.8564 57.3084 59.82 57.2722 59.7836C57.1586 59.6694 57.0456 59.5552 56.9334 59.4411C56.8011 59.3068 56.6692 59.1719 56.5379 59.0366C56.495 58.9924 56.4517 58.9482 56.409 58.904C56.2841 58.775 56.1596 58.6456 56.0355 58.5157C56.0345 58.5147 56.0335 58.5138 56.0327 58.5128C55.8004 58.2698 55.5696 58.0254 55.3402 57.7795L55.31 57.7468C55.1016 57.5231 54.8946 57.2981 54.6889 57.072C54.5309 56.8982 54.3738 56.7236 54.2176 56.5482C54.195 56.5229 54.1721 56.4974 54.1497 56.472C54.0105 56.3155 53.8721 56.1582 53.7345 56.0003C53.7042 55.9655 53.6742 55.9308 53.6441 55.8961C53.5517 55.7898 53.4598 55.6831 53.3682 55.5761C53.3372 55.5397 53.3057 55.5032 53.2748 55.4668C53.1608 55.3331 53.0474 55.1988 52.9347 55.064C52.9044 55.0278 52.8749 54.9918 52.8447 54.9556C52.7822 54.8807 52.7199 54.8055 52.6579 54.7301C52.6249 54.69 52.5928 54.6501 52.5601 54.6101C52.5038 54.5413 52.4474 54.4725 52.3922 54.404C52.3569 54.3604 52.3226 54.3172 52.2877 54.2736C52.2338 54.2064 52.1794 54.1389 52.1265 54.072C52.0574 53.9848 51.9889 53.898 51.9214 53.8116L51.8978 53.7814L51.8674 53.742C51.802 53.6582 51.7371 53.5741 51.6725 53.4896C51.6442 53.4527 51.6163 53.4159 51.5885 53.3791C51.5445 53.3212 51.5006 53.2632 51.4569 53.2051C51.4189 53.1546 51.3818 53.1045 51.3446 53.0546C51.309 53.0068 51.2735 52.959 51.2386 52.9116C51.1487 52.7894 51.0595 52.6666 50.9713 52.5432L50.9542 52.519C50.8746 52.4074 50.7958 52.2951 50.7178 52.1824C50.6822 52.1312 50.6473 52.0804 50.6126 52.0296C50.5911 51.9981 50.5692 51.9664 50.5481 51.9351C50.5338 51.9139 50.5201 51.8933 50.5059 51.8722C50.4224 51.7479 50.3399 51.6228 50.2585 51.4971C50.2458 51.4777 50.233 51.4583 50.2207 51.4389C50.1085 51.2645 49.999 51.0883 49.8921 50.9105C49.8753 50.8825 49.8582 50.8545 49.8418 50.8268C49.7961 50.7496 49.7514 50.6732 49.7081 50.5977C49.7065 50.5949 49.7048 50.5923 49.7034 50.5896C49.6531 50.502 49.6038 50.4138 49.5553 50.3252C49.4999 50.2239 49.4458 50.1219 49.3931 50.0192C49.3868 50.0067 49.3801 49.9942 49.3738 49.9818C49.3248 49.8858 49.2789 49.7922 49.2352 49.7003L49.211 49.6494C49.1721 49.5664 49.1343 49.4828 49.0978 49.3987C49.0766 49.3502 49.0578 49.3035 49.0385 49.2563C49.0185 49.208 48.9979 49.1589 48.9796 49.1119C48.9619 49.0666 48.9465 49.0232 48.9305 48.9791C48.9132 48.9319 48.8954 48.8842 48.88 48.8385C48.8698 48.8084 48.861 48.7794 48.8516 48.7499C48.835 48.6984 48.8191 48.6467 48.8042 48.5948C48.7955 48.5643 48.7878 48.5348 48.78 48.5051C48.7602 48.4299 48.7425 48.3541 48.7271 48.2778C48.7188 48.2358 48.7113 48.1936 48.7047 48.1512C48.7002 48.1226 48.6954 48.0936 48.6918 48.0658C48.6867 48.0251 48.6827 47.9842 48.6795 47.9433C48.6774 47.9186 48.6747 47.8932 48.6735 47.8695C48.6717 47.8322 48.6722 47.7971 48.6724 47.7616C48.6724 47.7348 48.6715 47.7071 48.6726 47.6812C48.6741 47.6512 48.6778 47.6233 48.6807 47.5948C48.6837 47.5642 48.6859 47.533 48.6906 47.504C48.6945 47.4792 48.7006 47.4564 48.7058 47.4328C48.7126 47.4012 48.7191 47.3692 48.7281 47.3394C48.7406 47.2976 48.7549 47.2571 48.7714 47.2188C48.7746 47.2116 48.7782 47.2048 48.7814 47.1977C48.7984 47.1609 48.8174 47.1257 48.8382 47.0923C48.8415 47.0872 48.8442 47.0817 48.8477 47.0768C48.8707 47.0413 48.8966 47.0082 48.9242 46.9768C48.9308 46.9694 48.9375 46.9622 48.9442 46.9549C48.9734 46.924 49.004 46.8941 49.0376 46.867L48.6694 47.162C48.6739 47.1504 48.677 47.1376 48.6817 47.1262C48.684 47.1208 48.6867 47.1155 48.6893 47.11C48.7063 47.0716 48.7257 47.035 48.7469 47C48.7508 46.9938 48.7542 46.9871 48.7582 46.9811C48.7819 46.9441 48.8082 46.9093 48.837 46.8766C48.8426 46.87 48.8486 46.8638 48.8546 46.8572C48.8848 46.8246 48.9168 46.7933 48.9522 46.7652L44.2588 50.5266C44.2238 50.5546 44.1923 50.5856 44.1623 50.6178C44.1557 50.6247 44.1493 50.6318 44.143 50.6389C44.1378 50.645 44.1318 50.6504 44.1269 50.6565C44.1045 50.6838 44.084 50.7128 44.0647 50.7427C44.0609 50.7487 44.0576 50.7551 44.0541 50.7612C44.0427 50.7794 44.0314 50.7976 44.0214 50.8168C44.0122 50.8345 44.0042 50.8532 43.9958 50.8718C43.9935 50.8772 43.9907 50.8823 43.9886 50.8879C43.9754 50.9188 43.9634 50.9505 43.9529 50.9837C43.9504 50.9916 43.9493 51.0005 43.9471 51.0085C43.9383 51.0383 43.9317 51.0698 43.9251 51.1014C43.9214 51.1199 43.9155 51.1366 43.9123 51.1557C43.911 51.1628 43.9109 51.171 43.9099 51.1784C43.9056 51.2066 43.9034 51.2363 43.9006 51.2658C43.8986 51.2882 43.8948 51.3092 43.8936 51.3324C43.8932 51.3408 43.8937 51.35 43.8935 51.3586C43.8925 51.3855 43.893 51.4137 43.8933 51.4416C43.8934 51.466 43.8919 51.4892 43.893 51.5144C43.8935 51.526 43.8953 51.5388 43.896 51.5506C43.8976 51.5772 43.9001 51.6045 43.9026 51.632C43.9047 51.6552 43.9054 51.6772 43.9082 51.701C43.9101 51.7179 43.9138 51.736 43.9162 51.7532C43.9199 51.7811 43.9243 51.8092 43.929 51.8376C43.9322 51.857 43.9342 51.8751 43.9378 51.8948C43.9422 51.9187 43.9486 51.9441 43.9535 51.9685C43.9597 51.9977 43.9657 52.0271 43.9726 52.0572C43.9759 52.0712 43.978 52.0844 43.9815 52.0987C43.9896 52.1322 44.0001 52.1675 44.0094 52.202C44.017 52.2304 44.0241 52.2586 44.0326 52.2879C44.0351 52.297 44.037 52.3054 44.0397 52.3145C44.053 52.3596 44.0692 52.4068 44.0842 52.4533C44.0933 52.4812 44.1012 52.5084 44.111 52.5369C44.1124 52.5408 44.1134 52.5446 44.1147 52.5485C44.133 52.6019 44.1546 52.6576 44.175 52.7125C44.1866 52.7432 44.1966 52.7726 44.2086 52.804C44.2094 52.806 44.2101 52.808 44.211 52.81C44.2234 52.8418 44.2383 52.8756 44.2516 52.908C44.2773 52.9712 44.3025 53.0339 44.3308 53.0992L44.3353 53.1096C44.3711 53.192 44.4103 53.2764 44.4506 53.3622C44.4587 53.3795 44.4668 53.3968 44.4752 53.4143C44.4831 53.4309 44.4906 53.4472 44.4987 53.464C44.5349 53.5388 44.5732 53.6152 44.6128 53.6928C44.6218 53.7105 44.6316 53.7289 44.641 53.7469C44.6637 53.7908 44.6859 53.8344 44.7095 53.8789C44.788 54.0267 44.8689 54.1732 44.9522 54.3184C44.9947 54.3924 45.0385 54.4675 45.0832 54.543C45.0996 54.5705 45.1167 54.5985 45.1334 54.6263C45.1589 54.6692 45.1842 54.7118 45.2107 54.7551C45.2163 54.7643 45.2225 54.7738 45.2282 54.7832C45.2595 54.8343 45.2917 54.886 45.3241 54.9377C45.3483 54.9765 45.3723 55.0152 45.397 55.0544C45.4285 55.1038 45.4606 55.1539 45.4929 55.204C45.5134 55.2356 45.5329 55.2668 45.5536 55.2987C45.5607 55.3096 45.5683 55.3206 45.5754 55.3316C45.6118 55.3876 45.6497 55.4443 45.6874 55.5009C45.7148 55.5424 45.742 55.5836 45.7701 55.6254C45.8063 55.6793 45.8438 55.7339 45.881 55.7884C45.9073 55.8269 45.9327 55.8648 45.9594 55.9036C45.9647 55.9114 45.9702 55.9192 45.9755 55.9268C45.9932 55.9522 46.0114 55.978 46.0292 56.0036C46.0733 56.0669 46.1178 56.1304 46.1631 56.1945C46.192 56.2354 46.2214 56.2764 46.2508 56.3176C46.2742 56.3504 46.297 56.3827 46.3208 56.4157C46.3316 56.4308 46.3432 56.4462 46.3541 56.4614C46.4028 56.5286 46.4525 56.5964 46.5024 56.6645C46.5234 56.693 46.5434 56.7212 46.5646 56.7497L46.5971 56.7933C46.6256 56.8318 46.6547 56.8706 46.6836 56.9092C46.712 56.9473 46.7398 56.9849 46.7686 57.0233C46.7849 57.045 46.802 57.0671 46.8185 57.0888C46.8482 57.1284 46.8786 57.1681 46.9089 57.2077C46.9315 57.2375 46.9535 57.2668 46.9765 57.2967C46.9982 57.325 47.0206 57.3537 47.0424 57.382C47.0737 57.4224 47.1048 57.463 47.1366 57.5037C47.1529 57.5247 47.1686 57.5453 47.185 57.5664C47.2138 57.6034 47.2435 57.641 47.2727 57.6781C47.3065 57.7212 47.3402 57.764 47.3744 57.8073C47.3861 57.822 47.3974 57.8366 47.409 57.8514C47.4463 57.8984 47.4847 57.9461 47.5226 57.9935C47.554 58.0328 47.5852 58.072 47.617 58.1116L47.649 58.1517C47.6836 58.1946 47.7194 58.2381 47.7545 58.2813C47.801 58.3387 47.8474 58.396 47.8946 58.4536C47.9047 58.4658 47.9142 58.4779 47.9245 58.4901C47.9514 58.5231 47.9794 58.5564 48.0066 58.5894C48.064 58.6591 48.1216 58.7286 48.18 58.7989C48.1965 58.8188 48.2124 58.8383 48.229 58.8582C48.254 58.888 48.28 58.9183 48.3051 58.9481C48.3722 59.0281 48.4398 59.1084 48.5081 59.1888C48.5312 59.2159 48.5533 59.2426 48.5764 59.2698C48.5914 59.2876 48.6074 59.3056 48.6225 59.3233C48.7407 59.462 48.8596 59.6001 48.9792 59.7376L48.9857 59.7452L48.9868 59.7463C49.126 59.9062 49.2661 60.0655 49.4069 60.224C49.4227 60.242 49.4379 60.2595 49.4538 60.2774C49.4672 60.2925 49.4815 60.308 49.4949 60.3231C49.6503 60.4976 49.8065 60.6713 49.9636 60.8443C49.9726 60.8543 49.981 60.864 49.9902 60.874C50.0416 60.9304 50.0938 60.9872 50.1457 61.0438C50.1843 61.086 50.2226 61.1281 50.2614 61.1704C50.3406 61.2566 50.421 61.3432 50.5014 61.43L50.5789 61.5137C50.5886 61.524 50.598 61.5343 50.6077 61.5448C50.6571 61.598 50.7077 61.6515 50.7577 61.7048C50.8168 61.768 50.8758 61.8309 50.9355 61.8943C50.9834 61.945 51.032 61.9961 51.0802 62.0468C51.1505 62.1212 51.2206 62.1953 51.2918 62.2699L51.326 62.3058C51.3566 62.3379 51.3879 62.3701 51.4186 62.4021C51.5052 62.4924 51.5918 62.5825 51.6794 62.6732L51.8251 62.8234C51.9078 62.9086 51.9906 62.9936 52.0737 63.0784C52.1018 63.107 52.1294 63.1356 52.1576 63.1644C52.1784 63.1856 52.1998 63.2071 52.2206 63.2283C52.3414 63.3509 52.4631 63.4741 52.5858 63.5977C52.613 63.6248 52.6397 63.652 52.6669 63.6792C52.8158 63.8286 52.9662 63.9784 53.118 64.1288L53.1536 64.1641C53.5311 64.5375 53.9116 64.9079 54.2949 65.2753C54.3127 65.2924 54.3302 65.3095 54.3478 65.3265C54.5002 65.4725 54.6543 65.6176 54.8078 65.763C54.8846 65.8356 54.9603 65.9085 55.0374 65.9808C55.2861 66.215 55.536 66.448 55.787 66.6798C55.7906 66.6832 55.7943 66.6864 55.7979 66.6897C56.0798 66.95 56.3636 67.2089 56.6486 67.4666C56.7327 67.5425 56.8175 67.6176 56.9018 67.6933C57.1041 67.8751 57.3066 68.0567 57.5103 68.2369C57.5332 68.2571 57.5558 68.2776 57.5786 68.2978C57.631 68.3441 57.6842 68.3893 57.7368 68.4356C58.0136 68.6793 58.2913 68.9211 58.57 69.1616C58.6694 69.2472 58.7685 69.3328 58.8679 69.4181C59.2025 69.7046 59.5378 69.9893 59.8742 70.2704L59.9029 70.2948C60.1808 70.5268 60.4591 70.7569 60.7378 70.985C60.8067 71.0416 60.8761 71.0967 60.9452 71.1531C61.1522 71.3217 61.3593 71.4903 61.5666 71.6564C61.6749 71.7432 61.7831 71.8281 61.8914 71.9141C62.0596 72.0478 62.2278 72.1823 62.3959 72.3144C62.5213 72.4127 62.6466 72.509 62.772 72.6065C62.9164 72.7187 63.061 72.8321 63.2052 72.9429C63.2116 72.9479 63.218 72.9528 63.2246 72.9577C63.3946 73.0883 63.5641 73.2162 63.7338 73.3447C63.843 73.4274 63.9522 73.5116 64.0614 73.5934C64.2456 73.7317 64.4289 73.8669 64.6126 74.0025C64.7067 74.0722 64.8012 74.1433 64.8951 74.2123C65.0983 74.3613 65.3005 74.5069 65.5029 74.6528C65.5768 74.7059 65.6512 74.7609 65.725 74.8135C65.9984 75.0093 66.273 75.2033 66.5488 75.3956C70.8924 78.4243 74.4097 80.2346 76.452 80.4929V80.4929Z" fill="black"/>
<path d="M42.1999 66.3027C41.797 66.833 41.6278 67.2906 41.6859 67.6694L42.5968 73.6146C42.5719 73.4524 42.5915 73.275 42.6504 73.0845L42.7281 73.5914C42.4929 72.0562 46.0006 69.3046 52.5762 66.2221C52.8687 66.085 53.1641 65.9489 53.4619 65.8135L53.495 65.7986C53.7836 65.6674 54.075 65.5375 54.3682 65.4084C54.389 65.3993 54.4097 65.39 54.4305 65.3807C54.7163 65.2551 55.0044 65.1306 55.2941 65.0068C55.3229 64.9946 55.3514 64.982 55.3802 64.9698C55.6657 64.8482 55.953 64.7277 56.2417 64.6081C56.2743 64.5946 56.3068 64.5809 56.3395 64.5673C56.6292 64.4476 56.9206 64.329 57.2131 64.2114C57.251 64.1962 57.2886 64.1809 57.3264 64.1658C57.6179 64.049 57.9099 63.9336 58.2024 63.8195L58.3173 63.7745C58.6113 63.6602 58.9064 63.547 59.2023 63.435C59.2398 63.421 59.277 63.4067 59.3145 63.3926C59.6105 63.2809 59.9074 63.1705 60.2048 63.0612C60.2394 63.0485 60.2738 63.0358 60.3084 63.0231C60.7612 62.8573 61.2152 62.6944 61.6702 62.5345L61.7755 62.4975C62.2269 62.3394 62.6787 62.1843 63.1303 62.0326C63.1698 62.0193 63.2092 62.006 63.2487 61.9929C63.5897 61.8787 63.9312 61.7662 64.2732 61.6554C64.3115 61.643 64.3496 61.6305 64.3878 61.6182C64.7622 61.4973 65.1372 61.3783 65.5129 61.2614C65.797 61.173 66.0803 61.0866 66.363 61.001C66.3987 60.9903 66.4346 60.9793 66.4702 60.9686C66.7422 60.8868 67.0145 60.8061 67.2871 60.7265C67.335 60.7125 67.3828 60.6984 67.4307 60.6846C67.6579 60.6185 67.8846 60.5534 68.1105 60.4894C68.1564 60.4764 68.202 60.4638 68.2478 60.4508C68.4489 60.3942 68.6494 60.3384 68.849 60.2835C68.8935 60.2713 68.9382 60.2588 68.9826 60.2467C69.1802 60.1926 69.378 60.1392 69.576 60.0866C69.6257 60.0733 69.6751 60.0604 69.7247 60.0472C69.8804 60.0059 70.0359 59.9652 70.1908 59.9251C70.3733 59.8778 70.556 59.831 70.7388 59.7848C70.7986 59.7698 70.8585 59.7544 70.9181 59.7395C71.0923 59.6958 71.2667 59.6527 71.4412 59.6102C71.4425 59.6098 71.4438 59.6094 71.445 59.6091C71.7753 59.5286 72.1024 59.451 72.4263 59.3762L72.4698 59.3662C72.7616 59.299 73.0511 59.234 73.3373 59.1716C73.3465 59.1695 73.3557 59.1676 73.3649 59.1657C73.5943 59.1158 73.8241 59.067 74.054 59.0194L74.1538 58.9987C74.542 58.9188 74.9309 58.8426 75.3205 58.7699C75.3675 58.7612 75.415 58.7522 75.4618 58.7436C75.6363 58.7116 75.8095 58.6803 75.9809 58.6505C76.0274 58.6423 76.0732 58.6348 76.1197 58.6269C76.2162 58.6102 76.3129 58.5936 76.4083 58.5778C76.4596 58.5694 76.5102 58.5614 76.5611 58.553C76.6488 58.5388 76.7366 58.5244 76.8235 58.5106C76.879 58.5019 76.9336 58.4938 76.9886 58.4853C77.0739 58.4722 77.1594 58.459 77.2438 58.4465C77.3539 58.4302 77.4634 58.4145 77.5721 58.3991L77.6101 58.3938L77.6593 58.387C77.7654 58.3723 77.871 58.3581 77.9753 58.3445C78.0214 58.3384 78.0671 58.3328 78.1131 58.327C78.1856 58.3178 78.258 58.3086 78.3295 58.3C78.3921 58.2923 78.4542 58.2852 78.5161 58.278C78.5752 58.2712 78.6344 58.2643 78.6928 58.2578C78.8455 58.241 78.9969 58.2248 79.1456 58.2105L79.175 58.2078C79.3114 58.1946 79.448 58.1824 79.5846 58.1713C79.6466 58.1661 79.7082 58.1613 79.7696 58.1565C79.8076 58.1536 79.8459 58.1506 79.8838 58.1479C79.9092 58.1461 79.934 58.1446 79.9592 58.1429C80.1114 58.1325 80.2609 58.1235 80.4078 58.1161C80.4308 58.1149 80.4542 58.1135 80.477 58.1125C80.6842 58.1025 80.8915 58.0957 81.0989 58.0921C81.1314 58.0915 81.1642 58.0907 81.1965 58.0904C81.2862 58.0894 81.3747 58.0889 81.4618 58.089H81.4712C81.5738 58.0894 81.6749 58.0907 81.7742 58.093C81.8932 58.0957 82.0079 58.1001 82.1203 58.1055C82.1342 58.1063 82.1485 58.1068 82.1622 58.1074C82.2699 58.113 82.3739 58.1202 82.4754 58.1282L82.5316 58.1326C82.6256 58.1408 82.7166 58.1498 82.8053 58.1599C82.8578 58.1658 82.9076 58.173 82.9582 58.1798C83.0101 58.1866 83.0629 58.1932 83.1129 58.201C83.1609 58.2083 83.2062 58.2167 83.2522 58.2249C83.3018 58.2335 83.3519 58.2419 83.3994 58.2514C83.4307 58.2578 83.4601 58.2646 83.4904 58.2712C83.5442 58.2829 83.5974 58.2949 83.6485 58.3078C83.6791 58.3154 83.7087 58.3235 83.7383 58.3316C83.7849 58.3444 83.8303 58.3576 83.8746 58.3713C83.9039 58.3806 83.9331 58.3898 83.9614 58.3994C84.0032 58.4135 84.043 58.4282 84.0822 58.4433C84.1094 58.4536 84.1368 58.4639 84.1627 58.4749C84.2018 58.4911 84.2386 58.5082 84.2749 58.5254C84.2974 58.536 84.3206 58.5464 84.3418 58.5572C84.375 58.5742 84.4052 58.5922 84.4359 58.6102C84.4591 58.6235 84.4836 58.6366 84.5054 58.6505C84.5306 58.6667 84.553 58.6839 84.5762 58.7007C84.6012 58.7186 84.6271 58.7361 84.6499 58.7546C84.6694 58.7704 84.686 58.787 84.7039 58.8034C84.7279 58.825 84.7522 58.8467 84.7736 58.8694C84.8037 58.9011 84.8316 58.9338 84.8564 58.9673C84.8611 58.9737 84.8652 58.9801 84.8697 58.9864C84.8931 59.0196 84.9141 59.0535 84.9325 59.0883C84.9352 59.0937 84.9386 59.0988 84.9413 59.1042C84.9604 59.1419 84.9762 59.1809 84.9896 59.2206C84.9927 59.2298 84.9956 59.2393 84.9985 59.2487C85.0108 59.2895 85.0213 59.3308 85.0279 59.3736C85.004 59.2182 84.9802 59.0626 84.9564 58.9072C84.9642 58.9169 84.9739 58.9259 84.9814 58.9358C84.9848 58.9406 84.9881 58.9455 84.9916 58.9505C85.0164 58.9844 85.0382 59.0195 85.0579 59.0554C85.0615 59.0618 85.0656 59.0682 85.0689 59.0746C85.089 59.1137 85.1058 59.154 85.1199 59.1951C85.1228 59.2033 85.1252 59.2116 85.1279 59.2199C85.141 59.2626 85.1522 59.3058 85.159 59.3505L84.2481 53.4053C84.241 53.3615 84.2307 53.3183 84.2173 53.2761C84.2145 53.267 84.2118 53.2578 84.2086 53.2489C84.2061 53.2414 84.2042 53.2335 84.2015 53.2261C84.1889 53.1929 84.1743 53.1606 84.1579 53.1291C84.1547 53.1229 84.1508 53.1168 84.1474 53.1107C84.1371 53.0918 84.1271 53.0729 84.1155 53.0546C84.1047 53.0377 84.0926 53.0214 84.0806 53.005C84.0771 53.0002 84.0741 52.9953 84.0703 52.9906C84.0499 52.9633 84.0282 52.937 84.0052 52.9118C83.9997 52.9057 83.9924 52.9002 83.9866 52.8943C83.9653 52.8719 83.9414 52.8504 83.9173 52.8289C83.9032 52.8163 83.8917 52.803 83.8766 52.7906C83.8711 52.7859 83.8641 52.7818 83.8582 52.7772C83.836 52.7594 83.8114 52.7426 83.7871 52.7255C83.7688 52.7125 83.7524 52.6987 83.7329 52.6861C83.7258 52.6815 83.7176 52.6774 83.7103 52.673C83.6875 52.6586 83.6628 52.645 83.6386 52.6312C83.6175 52.6191 83.5981 52.6063 83.5758 52.5946C83.5654 52.5892 83.5535 52.5843 83.543 52.579C83.5192 52.5671 83.4943 52.5557 83.4693 52.5441C83.448 52.5342 83.4286 52.5238 83.4066 52.5143C83.391 52.5076 83.3734 52.5017 83.3574 52.4951C83.331 52.4844 83.3046 52.474 83.2779 52.4641C83.2596 52.4572 83.2429 52.4498 83.2241 52.4431C83.2012 52.435 83.1759 52.4278 83.1523 52.4198C83.124 52.4105 83.0955 52.401 83.0661 52.392C83.0522 52.3878 83.0398 52.3831 83.0257 52.379C82.9926 52.3693 82.9568 52.3606 82.9222 52.3514C82.8938 52.3438 82.8659 52.3359 82.8364 52.3286C82.8272 52.3262 82.819 52.3237 82.8097 52.3214C82.7639 52.3104 82.715 52.3008 82.6672 52.2906C82.6386 52.2844 82.611 52.2778 82.5814 52.272C82.5773 52.2712 82.5736 52.2702 82.5695 52.2694C82.5143 52.2586 82.4553 52.2494 82.3974 52.2396C82.365 52.2342 82.3345 52.2282 82.3014 52.223C82.2992 52.2227 82.2972 52.2222 82.295 52.2219C82.2613 52.2168 82.2246 52.2128 82.1899 52.2081C82.1223 52.1988 82.0554 52.1892 81.9848 52.1812L81.9736 52.1798C81.8816 52.1697 81.7894 52.1609 81.6971 52.1534C81.6782 52.1518 81.659 52.1502 81.6398 52.1486C81.6214 52.1473 81.6035 52.1456 81.5849 52.1442C81.4999 52.1381 81.4149 52.1329 81.3298 52.1286L81.2688 52.1259C81.2194 52.1236 81.1706 52.121 81.1202 52.1193C81.0585 52.1171 80.9968 52.1153 80.9351 52.1138C80.8326 52.1115 80.73 52.1102 80.6274 52.1099L80.6183 52.1098C80.5329 52.1095 80.446 52.1098 80.3583 52.1109C80.3263 52.1113 80.2934 52.1122 80.2611 52.1126C80.2112 52.1134 80.1615 52.114 80.111 52.1153C80.1 52.1154 80.0887 52.1161 80.0778 52.1162C80.0179 52.1178 79.957 52.1199 79.896 52.1221C79.8503 52.1237 79.8048 52.1251 79.7585 52.1269C79.7 52.1293 79.6405 52.1322 79.581 52.135C79.5433 52.137 79.5066 52.1383 79.4686 52.1402C79.4557 52.1409 79.4423 52.1419 79.4292 52.1426C79.3625 52.1462 79.2946 52.1506 79.2267 52.1549C79.1769 52.1578 79.1278 52.1609 79.0775 52.1643C79.0127 52.1687 78.9468 52.1738 78.881 52.1789C78.8344 52.1823 78.7889 52.1854 78.7419 52.1892L78.7138 52.1916C78.683 52.1942 78.6514 52.197 78.6203 52.1997C78.5435 52.2062 78.4662 52.213 78.3881 52.2202C78.3383 52.2248 78.2879 52.2298 78.2377 52.2346C78.1976 52.2386 78.1582 52.2422 78.1178 52.2462C78.0994 52.2481 78.0801 52.2504 78.0615 52.2522C77.9781 52.261 77.8947 52.2699 77.8114 52.2791C77.7763 52.283 77.7419 52.2863 77.7066 52.2903L77.6525 52.2967C77.6049 52.3021 77.5568 52.3079 77.5089 52.3136C77.4616 52.3192 77.4153 52.3245 77.3675 52.3302C77.3406 52.3335 77.3128 52.3372 77.2858 52.3406C77.2368 52.3467 77.1872 52.3531 77.1377 52.3594C77.1006 52.3642 77.0642 52.3685 77.0269 52.3734C76.9916 52.3781 76.9554 52.3832 76.92 52.3879C76.8693 52.3947 76.8186 52.4014 76.7675 52.4085C76.7413 52.4122 76.7154 52.4154 76.689 52.4191C76.6426 52.4256 76.5952 52.4326 76.5484 52.4393L76.3857 52.4627L76.3302 52.4706C76.2709 52.4794 76.2104 52.4889 76.1504 52.498C76.1006 52.5054 76.051 52.5129 76.0008 52.5207C75.9838 52.5234 75.9671 52.5257 75.9502 52.5283C75.8957 52.5368 75.8401 52.5461 75.7851 52.5549C75.7122 52.5665 75.6394 52.578 75.5659 52.5901C75.5503 52.5927 75.535 52.595 75.5194 52.5976C75.4774 52.6046 75.4345 52.612 75.3923 52.6191C75.3033 52.634 75.2142 52.6491 75.1242 52.6646C75.0987 52.669 75.0738 52.673 75.0482 52.6774C75.01 52.6841 74.9706 52.6914 74.9323 52.6983C74.8295 52.7164 74.7262 52.7349 74.6224 52.7538C74.5874 52.7602 74.5533 52.766 74.5181 52.7724C74.4952 52.7766 74.4717 52.7813 74.4487 52.7856C74.2663 52.8193 74.084 52.8538 73.9018 52.8892L73.9002 52.8895C73.6946 52.9295 73.4862 52.9715 73.2764 53.0145C73.253 53.0193 73.2302 53.0237 73.2066 53.0285C73.1869 53.0325 73.1663 53.0371 73.1466 53.0412C72.9178 53.0885 72.6892 53.137 72.4609 53.1865C72.4478 53.1894 72.4351 53.1918 72.4218 53.1947C72.3474 53.211 72.2719 53.2278 72.197 53.2445C72.1412 53.2567 72.0854 53.2689 72.0295 53.2814C71.9153 53.3069 71.8 53.333 71.6846 53.3594C71.6474 53.3679 71.6106 53.3761 71.5734 53.3846C71.5596 53.3879 71.5458 53.391 71.532 53.3941C71.4613 53.4104 71.3896 53.4274 71.3186 53.4441C71.2342 53.4637 71.1502 53.4832 71.0654 53.5034C70.9976 53.5194 70.929 53.5359 70.861 53.5522C70.7614 53.5759 70.6622 53.5997 70.562 53.6241L70.5137 53.6357C70.4706 53.6462 70.4271 53.6572 70.384 53.6678C70.2626 53.6976 70.1412 53.7275 70.019 53.758L69.816 53.8092C69.7012 53.8381 69.5864 53.8674 69.471 53.897L69.3544 53.9267C69.3257 53.9342 69.2963 53.942 69.2677 53.9494C69.101 53.9926 68.9336 54.0365 68.7651 54.081C68.7279 54.091 68.6911 54.1005 68.654 54.1104C68.4502 54.1646 68.2452 54.22 68.0391 54.2763L67.9906 54.2895C67.4784 54.4295 66.9675 54.5738 66.4578 54.7223C66.4341 54.7292 66.4105 54.7357 66.3868 54.7426C66.1843 54.8015 65.9815 54.8623 65.7788 54.9226C65.6775 54.9527 65.5766 54.9819 65.4754 55.0126C65.1483 55.1109 64.8216 55.2108 64.4954 55.3122L64.4812 55.3168C64.1145 55.4309 63.7485 55.547 63.383 55.6651C63.2752 55.6999 63.1678 55.7358 63.0602 55.771C62.8015 55.8551 62.5432 55.9402 62.2851 56.0262C62.2562 56.0359 62.227 56.0452 62.1982 56.0548C62.1319 56.0771 62.0662 56.1006 61.9998 56.1229C61.6508 56.2407 61.3024 56.3602 60.9545 56.4814C60.8307 56.5247 60.707 56.5678 60.5834 56.6113C60.1688 56.7572 59.755 56.9057 59.3421 57.0566C59.3303 57.0608 59.3184 57.0649 59.3066 57.0692C58.9677 57.1935 58.6293 57.3195 58.2916 57.4471C58.2081 57.4786 58.1256 57.5111 58.0422 57.5428C57.7927 57.6378 57.5432 57.7328 57.2958 57.8293C57.1664 57.8796 57.0388 57.931 56.9101 57.9818C56.7102 58.0606 56.5096 58.139 56.3113 58.2186C56.1633 58.2779 56.0173 58.3383 55.8702 58.3981C55.7008 58.467 55.5303 58.5355 55.3622 58.605C55.3547 58.6081 55.3473 58.6112 55.3398 58.6145C55.1416 58.6964 54.9462 58.7793 54.75 58.8619C54.6237 58.9151 54.4962 58.9678 54.3709 59.0214C54.159 59.1116 53.9502 59.2029 53.7409 59.294C53.6335 59.3407 53.5246 59.387 53.4179 59.4339C53.1891 59.5349 52.9606 59.637 52.7326 59.74C52.6495 59.7774 52.5649 59.8144 52.4822 59.8519C52.176 59.9908 51.8707 60.1316 51.5663 60.2743C46.7713 62.5223 43.4449 64.6631 42.1999 66.3027V66.3027Z" fill="black"/>
<path d="M71.6151 43.7342C71.3572 43.1202 71.0457 42.7448 70.6885 42.6057L65.0844 40.422C65.2372 40.4816 65.381 40.5871 65.5166 40.7334L65.0386 40.5473C66.486 41.1112 67.1149 45.5247 66.4967 52.7607C66.4692 53.0825 66.4394 53.4064 66.4077 53.732C66.4064 53.744 66.4054 53.756 66.4042 53.7681C66.373 54.0853 66.3401 54.4024 66.3055 54.7194C66.303 54.742 66.3006 54.7646 66.2983 54.7872C66.2641 55.0975 66.2279 55.4093 66.1902 55.7221C66.1865 55.7531 66.1829 55.7841 66.1791 55.8152C66.1417 56.1232 66.1025 56.4322 66.0617 56.7421C66.0571 56.7771 66.0527 56.8121 66.0481 56.8472C66.0067 57.1589 65.9639 57.4704 65.9196 57.7818L65.9025 57.9027C65.858 58.2127 65.8117 58.5234 65.7643 58.8344L65.7458 58.9563C65.6978 59.2681 65.6482 59.5802 65.5973 59.8925C65.5909 59.9319 65.5846 59.9714 65.5781 60.0109C65.5268 60.323 65.4739 60.6354 65.4198 60.9475L65.4011 61.0563C65.3183 61.5314 65.2323 62.006 65.1433 62.48L65.1227 62.5897C65.0341 63.0588 64.9425 63.5274 64.8478 63.9954C64.8396 64.0363 64.8314 64.0771 64.823 64.1178C64.7435 64.5096 64.6618 64.9008 64.578 65.2917C64.4989 65.6608 64.418 66.0286 64.3357 66.3941L64.3245 66.4445C64.2591 66.7335 64.1926 67.0223 64.1249 67.3108C64.1165 67.3471 64.1081 67.3837 64.0995 67.4198C64.0341 67.6976 63.9677 67.9736 63.9007 68.2483L63.8653 68.3936C63.8089 68.6234 63.7518 68.8522 63.6944 69.0798C63.6827 69.1261 63.6709 69.1718 63.6592 69.2182C63.6076 69.4205 63.5557 69.622 63.5035 69.8225C63.4918 69.8671 63.4802 69.9121 63.4685 69.9566C63.4165 70.1548 63.3639 70.3528 63.3105 70.5506C63.2972 70.6002 63.2837 70.6494 63.2702 70.699C63.2112 70.9165 63.1515 71.1338 63.0911 71.3509C63.0577 71.4705 63.0241 71.5898 62.9905 71.7085C62.9737 71.7678 62.9569 71.8274 62.9401 71.8865C62.8908 72.0592 62.841 72.2318 62.7906 72.4042L62.7895 72.408C62.6952 72.7307 62.5989 73.0528 62.5006 73.3743L62.4874 73.417C62.3979 73.7093 62.3067 74.001 62.2137 74.2922C62.1421 74.5159 62.0695 74.7393 61.9957 74.9622L61.9637 75.0591C61.8971 75.2599 61.8301 75.4584 61.7628 75.6547L61.7177 75.785C61.6718 75.9181 61.6254 76.051 61.5785 76.1838C61.5625 76.229 61.5466 76.2745 61.5306 76.3194C61.4718 76.485 61.4122 76.6504 61.3518 76.8154C61.3356 76.8599 61.3192 76.9033 61.3029 76.9474C61.2689 77.0394 61.235 77.1314 61.2009 77.2221C61.1826 77.2706 61.1643 77.3184 61.146 77.3667C61.1145 77.4498 61.0831 77.5331 61.0515 77.6151C61.0313 77.6676 61.011 77.719 60.9909 77.771C60.9595 77.8512 60.9283 77.9318 60.8969 78.0113C60.8563 78.1141 60.8152 78.2167 60.7737 78.3192L60.7594 78.3548L60.7406 78.4007C60.7006 78.4992 60.6602 78.5976 60.6194 78.6958C60.6016 78.7389 60.5836 78.7812 60.5657 78.8238C60.5373 78.8913 60.5091 78.9585 60.4808 79.0249C60.4561 79.083 60.4313 79.1401 60.4066 79.1974C60.3829 79.252 60.3593 79.3066 60.3357 79.3606C60.2749 79.4995 60.2131 79.6381 60.1504 79.7762C60.1463 79.7853 60.1421 79.7941 60.1381 79.803C60.0556 79.984 59.9712 80.1642 59.8852 80.3436C59.8685 80.3781 59.8521 80.4127 59.8355 80.4467C59.8243 80.4697 59.8133 80.4918 59.8021 80.5147C59.7363 80.6493 59.6693 80.7833 59.601 80.9166C59.5905 80.9371 59.5801 80.958 59.5695 80.9784C59.4744 81.1627 59.3766 81.3456 59.2762 81.527C59.2605 81.5554 59.2446 81.5844 59.2289 81.6124C59.1347 81.7804 59.0376 81.9469 58.9377 82.1116C58.8776 82.2101 58.8163 82.3079 58.7537 82.405C58.7461 82.4166 58.7387 82.4287 58.7311 82.4402C58.614 82.6207 58.4917 82.7977 58.3641 82.971C58.3326 83.0135 58.3016 83.0531 58.2705 83.0935C58.2385 83.135 58.2065 83.1774 58.1749 83.2167C58.1445 83.2546 58.1145 83.2898 58.0845 83.3255C58.0522 83.3641 58.0197 83.4034 57.9878 83.4397C57.9668 83.4636 57.9461 83.4856 57.9253 83.5085C57.8891 83.5486 57.8522 83.5882 57.8147 83.6271C57.7931 83.6493 57.7712 83.6712 57.7491 83.693C57.6938 83.7477 57.6371 83.8009 57.5788 83.8525C57.5466 83.8806 57.5138 83.9082 57.4805 83.935C57.4578 83.9534 57.4353 83.9719 57.4128 83.989C57.3792 84.0147 57.346 84.038 57.3128 84.0609C57.2925 84.075 57.2719 84.0899 57.2518 84.103C57.2205 84.1232 57.1898 84.1403 57.1589 84.1579C57.1357 84.1714 57.1123 84.1859 57.0893 84.1978C57.0626 84.2116 57.0365 84.2224 57.0103 84.2342C56.9824 84.2468 56.9543 84.2605 56.9268 84.271C56.9034 84.2798 56.8807 84.286 56.8577 84.2934C56.8269 84.3033 56.796 84.3135 56.7656 84.3206C56.7231 84.3308 56.6809 84.3386 56.6393 84.3434C56.6316 84.3443 56.6239 84.3446 56.6161 84.3454C56.5757 84.349 56.5358 84.3502 56.4964 84.3487C56.4903 84.3485 56.4842 84.3488 56.4781 84.3485C56.4264 84.3454 56.3749 84.3377 56.3245 84.3257C56.2827 84.3163 56.2416 84.304 56.2016 84.2888C56.3481 84.3458 56.4947 84.403 56.6412 84.4602C56.6289 84.462 56.6163 84.4658 56.604 84.4674C56.5981 84.4682 56.5921 84.4684 56.5861 84.469C56.5443 84.4734 56.5029 84.4749 56.4621 84.474C56.4548 84.4738 56.4473 84.4742 56.44 84.4738C56.3877 84.4712 56.3357 84.464 56.2846 84.4522C56.2409 84.4426 56.1979 84.4298 56.1561 84.4138L61.7602 86.5977C61.8017 86.6134 61.8442 86.6261 61.8875 86.6356C61.8968 86.6377 61.906 86.64 61.9154 86.6417C61.9233 86.6433 61.9309 86.6456 61.9388 86.6469C61.9736 86.6526 62.0089 86.6559 62.0445 86.6576C62.0515 86.6579 62.0588 86.6576 62.0657 86.6577C62.0873 86.6584 62.1086 86.6592 62.1303 86.6582C62.1503 86.6573 62.1705 86.6548 62.1907 86.6529C62.1965 86.6521 62.2024 86.6519 62.2082 86.6512C62.2421 86.6471 62.2758 86.6415 62.3091 86.6342C62.3171 86.6324 62.3254 86.6289 62.3334 86.6268C62.3636 86.6194 62.3943 86.6094 62.4249 86.5994C62.4428 86.5935 62.4602 86.5901 62.4782 86.5834C62.4851 86.5809 62.4921 86.5768 62.4991 86.5741C62.5257 86.5637 62.5525 86.5508 62.5794 86.5384C62.5998 86.529 62.62 86.5218 62.6406 86.5113C62.6481 86.5074 62.6558 86.5022 62.6633 86.4982C62.6872 86.4856 62.7113 86.471 62.7353 86.4569C62.7564 86.4446 62.7771 86.4342 62.7985 86.4208C62.8083 86.4145 62.8184 86.4066 62.8283 86.4001C62.8505 86.3855 62.873 86.3695 62.8954 86.3538C62.9145 86.3402 62.9333 86.3286 62.9525 86.3143C62.9661 86.3042 62.98 86.2918 62.9937 86.2813C63.0158 86.2642 63.0381 86.2462 63.0604 86.2279C63.0755 86.2155 63.0902 86.2048 63.1054 86.1919C63.1238 86.1761 63.1428 86.1578 63.1614 86.1413C63.1837 86.1214 63.2061 86.1015 63.2286 86.0805C63.2392 86.0706 63.2496 86.0622 63.2601 86.0521C63.2852 86.0282 63.3105 86.0014 63.3357 85.9763C63.3565 85.9554 63.3773 85.9352 63.3985 85.9133C63.4049 85.9066 63.4113 85.9006 63.4179 85.8938C63.4503 85.8597 63.4831 85.8222 63.5158 85.7858C63.5356 85.764 63.555 85.7434 63.5748 85.7207L63.5831 85.7118C63.6201 85.6693 63.6576 85.6229 63.6949 85.5776C63.7157 85.5522 63.7362 85.5288 63.7572 85.5027C63.7586 85.5009 63.76 85.4994 63.7614 85.4977C63.7827 85.471 63.8045 85.441 63.8259 85.4134C63.8677 85.3596 63.9094 85.3066 63.9517 85.2493C63.954 85.2462 63.9563 85.2434 63.9586 85.2403C64.0119 85.1681 64.0657 85.0919 64.1197 85.0141C64.1306 84.9984 64.1414 84.9827 64.1525 84.9667C64.1629 84.9516 64.1733 84.937 64.1837 84.9215C64.2305 84.8528 64.2776 84.7814 64.3249 84.7084C64.3357 84.6916 64.3467 84.6739 64.3576 84.6569C64.3843 84.6153 64.4109 84.5743 64.4377 84.5314C64.5248 84.3921 64.6096 84.2514 64.6922 84.1094L64.697 84.1014C64.74 84.0277 64.7829 83.9522 64.8261 83.8758C64.8417 83.8479 64.8573 83.819 64.873 83.7908C64.8974 83.747 64.9217 83.7039 64.9459 83.6594C64.951 83.6498 64.9563 83.6397 64.9616 83.6302C64.9901 83.5774 65.0189 83.5236 65.0475 83.4698C65.0689 83.4294 65.0904 83.3893 65.112 83.3482C65.1392 83.2964 65.1665 83.2434 65.1937 83.1904C65.2108 83.1569 65.2281 83.1245 65.2453 83.0906C65.2513 83.0789 65.257 83.0669 65.2629 83.0552C65.2933 82.9956 65.3234 82.9345 65.3537 82.8736C65.3759 82.829 65.3981 82.7849 65.4201 82.7398C65.4487 82.6814 65.4773 82.6216 65.5057 82.5622C65.526 82.5202 65.5462 82.4791 65.5665 82.4366C65.5705 82.4282 65.5745 82.4195 65.5783 82.4111C65.5915 82.3831 65.6048 82.3545 65.6181 82.3262C65.6509 82.2562 65.6835 82.186 65.7164 82.1147C65.7374 82.0693 65.7583 82.0231 65.7792 81.9772C65.7957 81.9405 65.8125 81.9045 65.8291 81.8674C65.8367 81.8506 65.8443 81.8328 65.852 81.8158C65.8859 81.7401 65.9198 81.663 65.9538 81.5858C65.9681 81.5534 65.9822 81.5219 65.9965 81.4893L66.0181 81.4394C66.037 81.3954 66.0562 81.3509 66.0752 81.3066C66.0939 81.2628 66.1127 81.22 66.1314 81.1758C66.1421 81.1508 66.1527 81.125 66.1632 81.1C66.1825 81.0543 66.2017 81.0083 66.221 80.9621C66.2354 80.9278 66.2499 80.8939 66.2643 80.8592C66.278 80.8263 66.2915 80.7925 66.3052 80.7594C66.3246 80.7121 66.3441 80.6648 66.3635 80.6171C66.3736 80.5925 66.3836 80.5686 66.3936 80.5438C66.4113 80.5002 66.4288 80.4558 66.4465 80.4119L66.5075 80.2593L66.5284 80.2073C66.5504 80.1514 66.5725 80.0944 66.5946 80.0379C66.6131 79.991 66.6314 79.9444 66.6497 79.897C66.656 79.881 66.6623 79.8654 66.6684 79.8494C66.6883 79.7978 66.7081 79.745 66.7279 79.6932C66.7543 79.6242 66.7808 79.5554 66.807 79.4856C66.8125 79.4708 66.8182 79.4565 66.8238 79.4416C66.8388 79.4018 66.8537 79.3609 66.8687 79.3208C66.9004 79.2362 66.9317 79.1515 66.9635 79.0658C66.9724 79.0415 66.9813 79.0179 66.9903 78.9937C67.0036 78.9572 67.0169 78.9194 67.0301 78.8828C67.0658 78.7847 67.1015 78.6861 67.1371 78.5867C67.149 78.5531 67.1611 78.5206 67.173 78.487C67.1809 78.4651 67.1885 78.4424 67.1963 78.4204C67.2573 78.2486 67.3175 78.0766 67.3768 77.9042L67.3801 77.895L67.3805 77.8934C67.4488 77.6954 67.5165 77.4939 67.5842 77.2907C67.5918 77.2681 67.5994 77.2461 67.607 77.2233C67.6134 77.2041 67.6197 77.1841 67.6261 77.165C67.6994 76.9432 67.7717 76.721 67.843 76.4986C67.8471 76.4856 67.8513 76.4734 67.8554 76.4605C67.8786 76.3879 67.9017 76.3142 67.9248 76.241C67.9421 76.1863 67.9593 76.1322 67.9765 76.0774C68.0116 75.9658 68.0464 75.8528 68.0813 75.7398L68.1151 75.6309L68.1277 75.5903C68.1489 75.521 68.17 75.4503 68.1911 75.3805C68.2163 75.2976 68.2413 75.2151 68.2663 75.1316C68.2864 75.0649 68.3062 74.9974 68.3261 74.9301C68.3553 74.8321 68.3845 74.7342 68.4134 74.6353L68.4276 74.5876C68.44 74.5452 68.4524 74.5018 68.4646 74.4593C68.4995 74.3394 68.5342 74.2191 68.569 74.098C68.6317 73.8782 68.6938 73.6582 68.7553 73.4381C68.7633 73.4095 68.771 73.3802 68.7791 73.3516C68.8249 73.1857 68.8707 73.0187 68.9163 72.8506L68.9464 72.7396C69.0013 72.5361 69.0559 72.3308 69.1101 72.1242L69.123 72.0757C69.1581 71.9423 69.1929 71.8084 69.2276 71.6738C69.3254 71.2937 69.4211 70.913 69.5146 70.5318C69.5205 70.5078 69.5267 70.4841 69.5326 70.4602C69.5829 70.2553 69.6316 70.0494 69.6807 69.8437C69.7053 69.741 69.7305 69.6389 69.7545 69.5359C69.8329 69.2039 69.9097 68.8711 69.985 68.5374L69.9881 68.523C70.0726 68.1486 70.1551 67.7734 70.2357 67.3978C70.2594 67.287 70.282 67.176 70.3054 67.0652C70.3617 66.799 70.4176 66.533 70.4718 66.2664C70.4779 66.2365 70.4845 66.2067 70.4905 66.1769C70.5044 66.1084 70.5169 66.0397 70.5308 65.971C70.629 65.4814 70.7241 64.9911 70.8159 64.5002C70.8969 64.0681 70.9753 63.6356 71.0509 63.2026C71.0531 63.1902 71.0556 63.1778 71.0577 63.1655C71.1197 62.8089 71.1798 62.4528 71.238 62.0975C71.2525 62.0094 71.2657 61.9218 71.2798 61.8338C71.3226 61.5708 71.3643 61.3075 71.4049 61.0441C71.426 60.9069 71.4453 60.7707 71.4657 60.6338C71.4974 60.4214 71.5298 60.2085 71.5601 59.9969C71.5826 59.839 71.6034 59.6824 71.6251 59.5251C71.6501 59.344 71.6761 59.1621 71.6999 58.9818C71.7011 58.9737 71.702 58.9658 71.7029 58.9576C71.7311 58.745 71.7571 58.5343 71.7836 58.323C71.8005 58.1871 71.8188 58.0503 71.8352 57.915C71.8629 57.6865 71.8881 57.46 71.9138 57.2332C71.9272 57.1169 71.9415 56.9994 71.9542 56.8836C71.9817 56.6331 72.0066 56.3851 72.0318 56.137C72.0409 56.0464 72.0513 55.9546 72.0601 55.8642C72.0931 55.5268 72.1239 55.1919 72.1522 54.8597C72.6033 49.5834 72.4125 45.6321 71.6151 43.7342V43.7342Z" fill="black"/>
<path d="M78.0991 80.0177L78.0975 80.0203C78.0939 80.0264 78.0907 80.0326 78.0867 80.0387C78.0581 80.083 78.0255 80.1247 77.9895 80.1632C77.9594 80.1957 77.9278 80.2268 77.8927 80.2549L82.5859 76.4934C82.621 76.4653 82.6526 76.4341 82.6827 76.4018C82.6891 76.3949 82.6954 76.3882 82.7015 76.3812C82.7067 76.3752 82.7127 76.3696 82.7179 76.3633C82.7403 76.3361 82.7607 76.307 82.7799 76.2771C82.7839 76.2711 82.7871 76.2649 82.7908 76.2587C82.802 76.2404 82.8135 76.2221 82.8235 76.2029C82.8325 76.1853 82.8406 76.1668 82.8487 76.1484C82.8511 76.1428 82.8539 76.1376 82.8563 76.1321C82.8693 76.1012 82.8814 76.0693 82.8919 76.0361C82.8943 76.0284 82.8954 76.0195 82.8978 76.0116C82.9064 75.9817 82.9131 75.9501 82.9197 75.9185C82.9236 75.9 82.9292 75.8833 82.9325 75.8641C82.9337 75.8568 82.9339 75.8487 82.9349 75.8413C82.9391 75.8137 82.9414 75.7845 82.944 75.7556C82.9462 75.7325 82.9499 75.7112 82.9512 75.6873C82.9517 75.6788 82.9509 75.6693 82.9512 75.6606C82.9523 75.6341 82.9518 75.6065 82.9515 75.5791C82.9514 75.5544 82.9528 75.5308 82.9518 75.5053C82.9512 75.4937 82.9496 75.4813 82.9489 75.4697C82.9475 75.4428 82.9447 75.4151 82.9422 75.3877C82.9401 75.3645 82.9394 75.3425 82.9366 75.3187C82.9346 75.3019 82.9311 75.2837 82.9286 75.2668C82.9248 75.2388 82.9206 75.211 82.9159 75.1832C82.9127 75.1637 82.9108 75.145 82.9071 75.1252C82.9026 75.1008 82.8962 75.0748 82.8911 75.0501C82.8851 75.0217 82.8793 74.9933 82.8726 74.9642C82.8692 74.9497 82.8671 74.936 82.8635 74.9213C82.8553 74.8877 82.8448 74.8523 82.8355 74.8181C82.8278 74.7892 82.8207 74.7612 82.8123 74.7319C82.8096 74.7229 82.8078 74.7145 82.8051 74.7056C82.7914 74.6588 82.7747 74.6101 82.7591 74.5619C82.7507 74.5363 82.7436 74.5116 82.7347 74.4855C82.733 74.4808 82.7318 74.4763 82.7302 74.4715C82.7107 74.415 82.6881 74.3562 82.6659 74.2976C82.6558 74.2704 82.6471 74.2442 82.6363 74.2168C82.6353 74.2145 82.6347 74.2124 82.6339 74.2101C82.6207 74.1764 82.6048 74.1406 82.5907 74.1064C82.5659 74.0454 82.5417 73.985 82.5144 73.9221C82.5127 73.9184 82.5115 73.9147 82.5097 73.9109C82.4725 73.8263 82.4341 73.7422 82.3945 73.6587L82.3697 73.6061C82.3616 73.5896 82.3543 73.5734 82.3463 73.5568C82.3089 73.48 82.2708 73.4036 82.2318 73.3276C82.2231 73.3102 82.2137 73.2926 82.2048 73.2753C82.182 73.2308 82.1589 73.1863 82.1355 73.1421C82.059 72.9979 81.9801 72.8549 81.8988 72.7133C81.8968 72.7098 81.895 72.7063 81.8931 72.7027C81.8494 72.6267 81.8052 72.5509 81.7604 72.4755C81.7472 72.4534 81.7334 72.4307 81.7202 72.4083C81.6917 72.3611 81.6638 72.3139 81.6345 72.2661C81.6283 72.2558 81.6215 72.2453 81.6152 72.2349C81.5864 72.1878 81.5566 72.1401 81.5269 72.0925C81.5003 72.0497 81.4737 72.0069 81.4463 71.9637C81.4165 71.9166 81.3857 71.869 81.3552 71.8217C81.3339 71.7884 81.3134 71.7557 81.2916 71.7224C81.2847 71.7114 81.277 71.7003 81.2698 71.6893C81.2312 71.6301 81.1915 71.5703 81.1515 71.5106C81.127 71.4737 81.1029 71.4369 81.078 71.3997C81.0344 71.3349 80.9895 71.2693 80.9443 71.2037C80.9247 71.1747 80.9056 71.1462 80.8856 71.1173L80.8736 71.0999C80.8514 71.0678 80.8285 71.0352 80.8059 71.0029C80.7644 70.9435 80.7229 70.8839 80.6803 70.8238L80.6011 70.7128C80.5755 70.6768 80.5503 70.6412 80.5243 70.605C80.5123 70.5883 80.4994 70.571 80.4872 70.5542C80.4397 70.4885 80.3911 70.4222 80.3423 70.3557C80.3215 70.3274 80.3015 70.2995 80.2806 70.271C80.2703 70.2574 80.2601 70.2438 80.25 70.2301C80.2195 70.1888 80.1883 70.1473 80.1574 70.1059C80.1303 70.0697 80.1038 70.0337 80.0763 69.9974C80.0605 69.9764 80.0443 69.9551 80.0282 69.9339C79.9975 69.8933 79.9664 69.8523 79.9351 69.8114C79.9129 69.7822 79.8911 69.7533 79.8686 69.724L79.8682 69.7242L79.8686 69.724C79.8477 69.6965 79.826 69.6689 79.8047 69.6415C79.7727 69.5998 79.7407 69.5582 79.7085 69.5168C79.6923 69.4958 79.6764 69.4751 79.66 69.4541C79.6305 69.4162 79.6001 69.3781 79.5703 69.3399C79.5375 69.2982 79.5049 69.2564 79.4715 69.2144C79.4597 69.1993 79.4481 69.1843 79.436 69.1692C79.4 69.1237 79.3627 69.0774 79.3261 69.0315C79.2925 68.9896 79.2592 68.9477 79.2252 68.9053C79.2153 68.8932 79.2058 68.881 79.196 68.8688C79.1635 68.8285 79.1301 68.788 79.0973 68.7476C79.0483 68.687 78.9991 68.6266 78.9499 68.5662L78.9206 68.5303C78.8951 68.4991 78.8687 68.4677 78.8428 68.4365C78.782 68.3627 78.7211 68.2888 78.6591 68.2145C78.6445 68.1969 78.6304 68.1797 78.6159 68.1624C78.5943 68.1366 78.5717 68.1102 78.5502 68.0844C78.4769 67.9973 78.4032 67.9097 78.3285 67.8217C78.3082 67.7978 78.2887 67.7744 78.2684 67.7505C78.2547 67.7346 78.2405 67.7184 78.227 67.7023C78.1084 67.5635 77.9893 67.4251 77.8696 67.2872C77.8659 67.2832 77.8627 67.2791 77.8591 67.2752L77.8573 67.2729C77.7194 67.1146 77.5807 66.957 77.4412 66.8001C77.4243 66.7808 77.408 66.7619 77.3909 66.7426L77.3473 66.6943C77.1921 66.52 77.0361 66.3464 76.8792 66.1737L76.8542 66.1461C76.8403 66.1307 76.8255 66.1149 76.8115 66.0995C76.7023 65.9797 76.5897 65.8583 76.4783 65.7376L76.9982 67.4858L78.0933 71.1693L78.1035 71.2036L78.0838 71.2093L78.0788 71.2293L78.0442 71.2213L74.3064 70.3281L71.997 69.7761C72.0423 69.8258 72.0895 69.8761 72.1347 69.9256C72.1432 69.9347 72.1513 69.944 72.1597 69.9533C72.3137 70.1228 72.4669 70.293 72.6193 70.464C72.6453 70.4936 72.6719 70.5231 72.6979 70.5523C72.8349 70.7066 72.9713 70.8615 73.1068 71.0171C73.1394 71.0545 73.1715 71.0915 73.2038 71.1288C73.2941 71.2328 73.3841 71.3372 73.4737 71.4419C73.5058 71.4795 73.5383 71.5172 73.5702 71.5546C73.6821 71.686 73.7935 71.8179 73.9043 71.9503C73.9683 72.0268 74.0311 72.1029 74.0938 72.1788C74.1225 72.2136 74.1518 72.2485 74.1801 72.283C74.2307 72.3445 74.28 72.4053 74.3297 72.4664C74.3697 72.5156 74.4103 72.565 74.4499 72.6139C74.4942 72.6687 74.5372 72.7228 74.5809 72.7773C74.6243 72.8316 74.6682 72.886 74.7108 72.9399C74.8675 73.1371 75.0223 73.3356 75.1754 73.5356C75.1951 73.5613 75.2142 73.5869 75.2339 73.6125C75.3206 73.7264 75.4067 73.8408 75.492 73.9558C75.6193 74.1266 75.745 74.2986 75.869 74.4718C75.8823 74.4902 75.8947 74.5084 75.908 74.5269C76.0203 74.6848 76.131 74.8437 76.2403 75.0037C76.2574 75.0287 76.2747 75.0537 76.2915 75.0786C76.3099 75.1059 76.3275 75.1325 76.3458 75.1597C76.4263 75.2797 76.5046 75.3982 76.5806 75.5155C76.5956 75.5389 76.6113 75.5625 76.6263 75.5857C76.7403 75.7636 76.8519 75.9432 76.9608 76.1243C76.9736 76.1457 76.9867 76.1673 76.9993 76.1886C77.0481 76.2704 77.0962 76.3526 77.1434 76.4353C77.2517 76.6238 77.3555 76.8149 77.4548 77.0084L77.4698 77.0369C77.5259 77.1472 77.5803 77.2583 77.633 77.3703C77.6731 77.4557 77.7108 77.5393 77.7463 77.6213C77.7673 77.6694 77.7859 77.7157 77.8052 77.7625C77.8257 77.8119 77.8468 77.8618 77.8654 77.9099C78.3527 79.0869 78.3479 79.6525 78.0991 80.0177V80.0177Z" fill="#012F49"/>
<path d="M41.7882 67.9666L41.7866 67.9641C41.7832 67.958 41.7793 67.952 41.7761 67.9457C41.756 67.9068 41.7393 67.8665 41.7252 67.8255C41.7222 67.8169 41.7196 67.808 41.7169 67.7991C41.7034 67.7567 41.693 67.7134 41.686 67.6695L42.5969 73.6146C42.6037 73.659 42.6147 73.702 42.6278 73.7442C42.6306 73.7531 42.6331 73.7621 42.6362 73.7708C42.6388 73.7784 42.6407 73.7862 42.6435 73.7939C42.6558 73.8269 42.6707 73.8591 42.6871 73.8908C42.6903 73.8972 42.6942 73.903 42.6977 73.9093C42.7079 73.9281 42.7179 73.9472 42.7296 73.9655C42.7402 73.9821 42.7523 73.9983 42.7642 74.0146C42.7678 74.0196 42.771 74.0245 42.7745 74.0293C42.7947 74.0561 42.8163 74.0825 42.8398 74.1082C42.8454 74.1141 42.8525 74.1196 42.8581 74.1255C42.8797 74.1481 42.9037 74.1696 42.9278 74.1911C42.9418 74.2037 42.9535 74.217 42.9684 74.2294C42.9741 74.2341 42.9811 74.2383 42.9869 74.2429C43.0087 74.2603 43.0329 74.277 43.0566 74.2937C43.0755 74.3072 43.0922 74.3212 43.1121 74.3341C43.1194 74.3388 43.1278 74.3428 43.1352 74.3476C43.1576 74.3616 43.1818 74.375 43.2056 74.3885C43.2271 74.4006 43.2468 74.4137 43.2694 74.4256C43.2797 74.4309 43.2913 74.4357 43.3018 74.4409C43.3258 74.4529 43.351 74.4645 43.3762 74.4761C43.3973 74.4857 43.4167 74.4962 43.4386 74.5057C43.4542 74.5123 43.4716 74.5182 43.4876 74.5248C43.5132 74.5353 43.5396 74.5456 43.5664 74.5556C43.585 74.5625 43.602 74.5701 43.6211 74.5769C43.6445 74.5853 43.6702 74.5926 43.6942 74.6006C43.7218 74.6096 43.7492 74.6189 43.7778 74.6275C43.7921 74.6319 43.805 74.6368 43.8196 74.641C43.8526 74.6508 43.8886 74.6593 43.923 74.6685C43.9517 74.6763 43.9796 74.6841 44.0092 74.6914C44.0182 74.6936 44.0265 74.6963 44.0356 74.6985C44.083 74.71 44.1335 74.72 44.183 74.7305C44.2094 74.7359 44.2344 74.7421 44.2614 74.7474C44.2663 74.7484 44.2709 74.7496 44.2758 74.7505C44.3345 74.762 44.3968 74.7718 44.4585 74.782C44.4871 74.7868 44.5141 74.7922 44.5433 74.7967C44.5457 74.797 44.5478 74.7976 44.5502 74.7979C44.586 74.8033 44.625 74.8075 44.6617 74.8124C44.7268 74.8215 44.7913 74.8307 44.8594 74.8385C44.8635 74.8389 44.8674 74.8397 44.8714 74.8401C44.9826 74.8522 45.0939 74.8625 45.2054 74.8711C45.2237 74.8726 45.2414 74.8742 45.2598 74.8756C45.343 74.8816 45.4286 74.8868 45.5155 74.8912C45.5349 74.8923 45.5548 74.8929 45.5743 74.8938C45.624 74.8962 45.6733 74.8986 45.7243 74.9005C45.7851 74.9025 45.8467 74.9046 45.9094 74.906C46.009 74.9082 46.1109 74.9094 46.2142 74.9098C46.2182 74.9098 46.2222 74.9099 46.2262 74.9101C46.3139 74.9104 46.4016 74.9099 46.4893 74.9089C46.515 74.9085 46.5416 74.9078 46.5676 74.9075C46.6227 74.9065 46.6776 74.9059 46.7336 74.9045C46.7457 74.9043 46.7581 74.9036 46.7702 74.9033C46.8254 74.9019 46.8816 74.8998 46.9377 74.8981C46.9882 74.8964 47.0384 74.8949 47.0896 74.8927C47.1451 74.8905 47.2017 74.8877 47.2582 74.8849C47.2975 74.883 47.3362 74.8815 47.3759 74.8794C47.3889 74.8788 47.4025 74.8778 47.4155 74.8771C47.486 74.8733 47.5577 74.8687 47.6294 74.8641C47.6737 74.8613 47.7174 74.8589 47.7622 74.8558C47.8401 74.8505 47.9194 74.8444 47.9988 74.8382C48.0338 74.8356 48.0678 74.8333 48.103 74.8305C48.11 74.8299 48.1171 74.8292 48.1241 74.8287C48.163 74.8256 48.2026 74.8219 48.2418 74.8185C48.3141 74.8124 48.3864 74.8061 48.4598 74.7993L48.5954 74.7864C48.6395 74.782 48.6829 74.7781 48.7272 74.7737C48.7478 74.7715 48.7691 74.7691 48.7898 74.7669C48.8705 74.7586 48.9522 74.7497 49.0341 74.7408C49.0691 74.7369 49.1032 74.7336 49.1384 74.7296C49.1551 74.7276 49.1722 74.7254 49.189 74.7237C49.24 74.7177 49.2915 74.7116 49.3429 74.7054C49.3878 74.7001 49.4322 74.6951 49.4774 74.6896L49.5564 74.6796C49.607 74.6733 49.658 74.6668 49.709 74.6602C49.7455 74.6555 49.7814 74.6513 49.8181 74.6464L49.818 74.646L49.8181 74.6464C49.8522 74.6419 49.8871 74.637 49.9215 74.6323L50.0776 74.6113L50.1561 74.6006C50.2036 74.5939 50.2519 74.5868 50.2998 74.58C50.3524 74.5724 50.4048 74.5649 50.4578 74.5572C50.477 74.5545 50.4958 74.5519 50.5149 74.5489C50.5724 74.5405 50.631 74.5313 50.689 74.5225C50.7422 74.5145 50.7951 74.5066 50.8487 74.4982L50.895 74.4913C50.946 74.4833 50.9979 74.4745 51.0493 74.4664C51.1259 74.4542 51.2026 74.4419 51.2801 74.4293C51.2954 74.4268 51.3105 74.4245 51.3258 74.4219C51.3655 74.4154 51.4061 74.4081 51.4458 74.4015C51.5402 74.3857 51.6347 74.3698 51.7302 74.3533L51.7969 74.342C51.83 74.3362 51.864 74.3298 51.8972 74.324C52.01 74.3041 52.1228 74.2839 52.2355 74.2633L52.3272 74.2469C52.3478 74.2431 52.369 74.2389 52.3896 74.2352C52.5674 74.2021 52.7465 74.1685 52.9278 74.1333C52.9331 74.1321 52.9382 74.1314 52.9435 74.1303C52.9445 74.1301 52.9454 74.1298 52.9464 74.1297C53.1525 74.0895 53.3583 74.0482 53.564 74.006C53.5891 74.0009 53.6136 73.9962 53.639 73.9909C53.6599 73.9865 53.6817 73.9818 53.7027 73.9775C53.9312 73.9303 54.1595 73.8819 54.3875 73.8323C54.3998 73.8297 54.4116 73.8273 54.4239 73.8245C54.4442 73.8201 54.4652 73.8152 54.4856 73.8109C54.6439 73.7761 54.8054 73.7392 54.9658 73.7032L53.1918 73.2793L49.4542 72.3861L49.4194 72.3777L49.4242 72.3577L49.4093 72.3435L49.4337 72.3176L52.0761 69.5273L53.7089 67.8031C53.6431 67.8176 53.5761 67.8333 53.5106 67.8476C53.4984 67.8504 53.4863 67.8528 53.4741 67.8555C53.2503 67.9041 53.0262 67.9517 52.802 67.9982C52.7634 68.0061 52.7246 68.0142 52.6862 68.0222C52.4821 68.0641 52.2798 68.1046 52.0793 68.1439C52.0307 68.1535 51.9826 68.1627 51.9342 68.1721C51.7979 68.1985 51.6625 68.2242 51.528 68.2493C51.4793 68.2582 51.4305 68.2675 51.3822 68.2765C51.2108 68.308 51.0406 68.3386 50.8722 68.3681C50.774 68.3853 50.6768 68.4015 50.5797 68.4179C50.5353 68.4254 50.4903 68.4333 50.4462 68.4406C50.3678 68.4536 50.2904 68.4659 50.2127 68.4785C50.1501 68.4885 50.087 68.4989 50.0248 68.5088C49.9553 68.5197 49.8868 68.5299 49.8178 68.5405C49.7491 68.5509 49.6801 68.5618 49.6121 68.5718C49.3583 68.6093 49.109 68.6442 48.8639 68.6761C48.8317 68.6804 48.8 68.6842 48.768 68.6883C48.6789 68.6997 48.5899 68.7108 48.5007 68.7217C48.4474 68.7281 48.3946 68.7341 48.3416 68.7403C48.13 68.7652 47.9182 68.7881 47.7062 68.8087C47.6835 68.811 47.6616 68.8129 47.639 68.815C47.4462 68.8333 47.2532 68.8498 47.06 68.8645C47.0298 68.8665 46.9995 68.8692 46.9695 68.8713C46.9367 68.8736 46.9047 68.8756 46.8722 68.8777C46.728 68.8875 46.5862 68.8961 46.4466 68.9032L46.363 68.9075C46.1519 68.9176 45.9406 68.9245 45.7293 68.9281C45.7043 68.9284 45.6791 68.9291 45.6542 68.9293C45.4596 68.9322 45.2649 68.9313 45.0702 68.9269C44.9523 68.9241 44.8344 68.9198 44.7166 68.914C44.706 68.9133 44.695 68.913 44.6844 68.9125C44.5608 68.9061 44.4374 68.8976 44.3141 68.8871C44.22 68.8791 44.1288 68.87 44.0401 68.8599C43.9878 68.8539 43.9385 68.8469 43.8882 68.8403C43.8353 68.8332 43.7816 68.8265 43.7307 68.8186C42.4673 68.6517 41.9799 68.3647 41.7882 67.9666V67.9666Z" fill="#5E3702"/>
<path d="M70.3801 42.5457L70.383 42.5455C70.3901 42.5457 70.3972 42.5453 70.4043 42.5457C70.4481 42.5477 70.4911 42.5533 70.5337 42.5617C70.5428 42.5634 70.5518 42.5656 70.5608 42.5677C70.6039 42.5775 70.6466 42.5894 70.6886 42.6058L65.0845 40.4221C65.0429 40.4063 65.0002 40.3935 64.9567 40.384C64.9478 40.382 64.9386 40.3798 64.9294 40.3781C64.9215 40.3765 64.9138 40.3742 64.9058 40.3729C64.8708 40.3672 64.8355 40.3636 64.8001 40.3622C64.793 40.3618 64.7858 40.3622 64.7787 40.362C64.7572 40.3614 64.7358 40.3606 64.714 40.3616C64.6942 40.3625 64.6742 40.3649 64.6542 40.367C64.6482 40.3676 64.6423 40.3679 64.6362 40.3686C64.6029 40.3728 64.5692 40.3782 64.5352 40.3858C64.5273 40.3874 64.5192 40.391 64.5111 40.393C64.4808 40.4003 64.4502 40.4104 64.4194 40.4205C64.4015 40.4264 64.3841 40.4298 64.3659 40.4366C64.359 40.4391 64.3519 40.4431 64.345 40.4458C64.319 40.4561 64.2926 40.4687 64.2662 40.4808C64.2452 40.4905 64.2246 40.4978 64.2034 40.5087C64.1958 40.5126 64.188 40.5179 64.1803 40.522C64.157 40.5344 64.1332 40.5487 64.1097 40.5626C64.0883 40.575 64.0673 40.5856 64.0456 40.5993C64.0358 40.6054 64.026 40.6132 64.0162 40.6196C63.9938 40.6343 63.9712 40.6504 63.9485 40.6664C63.9294 40.6798 63.9107 40.6914 63.8915 40.7058C63.8781 40.7158 63.8642 40.728 63.8506 40.7386C63.8286 40.7555 63.8066 40.7732 63.7846 40.7914C63.7692 40.804 63.7541 40.815 63.7386 40.8281C63.7198 40.8442 63.7006 40.8627 63.6816 40.8796C63.6599 40.8989 63.6384 40.9181 63.6166 40.9384C63.6056 40.9486 63.5949 40.9574 63.5839 40.9679C63.559 40.9917 63.5335 41.0185 63.5084 41.0438C63.4874 41.0648 63.4666 41.085 63.4455 41.1069C63.439 41.1137 63.4327 41.1194 63.4262 41.1263C63.3926 41.1616 63.3586 41.2003 63.3248 41.238C63.3068 41.258 63.289 41.2766 63.2709 41.2974C63.2676 41.3011 63.2643 41.3045 63.261 41.3082C63.2218 41.3534 63.1821 41.4024 63.1425 41.4507C63.1241 41.4731 63.1058 41.4938 63.0874 41.5169C63.0859 41.5188 63.0845 41.5204 63.0829 41.5222C63.0604 41.5505 63.0373 41.5822 63.0146 41.6115C62.9742 41.6634 62.934 41.7146 62.8932 41.7698C62.8908 41.7731 62.8882 41.7761 62.8858 41.7794C62.8326 41.8517 62.779 41.9276 62.725 42.0053L62.6919 42.0531C62.6816 42.0682 62.6712 42.0827 62.6608 42.0981C62.6139 42.1671 62.5668 42.2386 62.5194 42.3117C62.5089 42.3279 62.4983 42.3449 62.4878 42.3613C62.4609 42.4032 62.4341 42.4446 62.407 42.4878C62.3747 42.5394 62.3423 42.5918 62.3098 42.6453C62.257 42.7321 62.2051 42.8195 62.1539 42.9073L62.1478 42.9176C62.1043 42.9922 62.0607 43.0685 62.0173 43.146C62.0046 43.1685 61.9919 43.1918 61.9793 43.2145C61.9525 43.2627 61.9257 43.3106 61.8988 43.3598C61.893 43.3702 61.8873 43.3814 61.8815 43.392C61.8551 43.4405 61.8288 43.4901 61.8024 43.5397C61.7786 43.5843 61.7548 43.6286 61.731 43.674C61.7052 43.7233 61.6794 43.7737 61.6535 43.8239C61.6354 43.8589 61.6174 43.893 61.5994 43.9286C61.5934 43.9402 61.5875 43.9524 61.5816 43.9641C61.5497 44.027 61.5178 44.0914 61.4859 44.1557C61.4662 44.1954 61.4465 44.2346 61.4268 44.2749C61.3924 44.345 61.3581 44.4168 61.3237 44.4886C61.3086 44.5202 61.2934 44.5509 61.2782 44.5828L61.2693 44.6019C61.2526 44.6372 61.2359 44.6733 61.2192 44.7089C61.1884 44.7745 61.1576 44.8404 61.1269 44.9072C61.1081 44.9481 61.0892 44.9897 61.0703 45.0313C61.052 45.0715 61.0338 45.111 61.0154 45.1517C61.007 45.1705 60.9984 45.1903 60.9899 45.2093C60.9565 45.2841 60.9234 45.359 60.8905 45.434C60.8763 45.4661 60.8622 45.4973 60.848 45.5299C60.8413 45.5453 60.8346 45.5613 60.8278 45.5767C60.8074 45.6237 60.787 45.6714 60.7666 45.719C60.7488 45.7606 60.731 45.8015 60.7131 45.8434C60.7029 45.8677 60.6926 45.8925 60.6823 45.9168C60.6625 45.9637 60.6426 46.0112 60.6228 46.0586C60.6086 46.0925 60.5945 46.1257 60.5802 46.16L60.5806 46.1601V46.1602L60.5802 46.1601C60.567 46.1918 60.5538 46.2245 60.5406 46.2566C60.5207 46.3049 60.5007 46.3534 60.4808 46.4024C60.4708 46.4269 60.4608 46.4509 60.4508 46.4757C60.4328 46.5201 60.4148 46.5657 60.3968 46.6105C60.377 46.6598 60.3572 46.7089 60.3374 46.7587C60.3303 46.7767 60.3231 46.7941 60.316 46.8122C60.2946 46.8662 60.2732 46.9216 60.2518 46.9762C60.2322 47.0263 60.2126 47.0761 60.193 47.1266C60.1874 47.1413 60.1816 47.1555 60.1759 47.1702C60.1574 47.2183 60.1389 47.2677 60.1203 47.3162C60.0925 47.3888 60.0647 47.4612 60.037 47.5346L60.0204 47.578C60.0062 47.6156 59.9922 47.6543 59.978 47.6921C59.9446 47.7817 59.9111 47.8715 59.8777 47.9623C59.8698 47.9837 59.8619 48.0044 59.8541 48.0258C59.8425 48.0574 59.831 48.0901 59.8194 48.1217C59.7802 48.2293 59.7414 48.3371 59.7028 48.4449C59.6923 48.4745 59.6817 48.503 59.6712 48.5326C59.6642 48.5524 59.6572 48.5729 59.6502 48.5926C59.5892 48.7647 59.5289 48.9371 59.4693 49.1097C59.4676 49.1148 59.4658 49.1197 59.4641 49.1247L59.4632 49.1274C59.395 49.326 59.3278 49.525 59.2615 49.7242C59.2534 49.7485 59.2452 49.7721 59.2371 49.7965C59.2303 49.8169 59.2236 49.8382 59.2169 49.8585C59.1435 50.08 59.0712 50.3019 59.0002 50.5241L58.9886 50.5595C58.9822 50.5793 58.9761 50.6 58.9698 50.6198C58.9206 50.7743 58.8718 50.9326 58.8229 51.0895L60.077 49.7651L62.7193 46.9748L62.744 46.9489L62.7589 46.963L62.7787 46.9573L62.789 46.9913L63.8842 50.6749L64.561 52.951C64.5814 52.8869 64.6013 52.8209 64.6216 52.7571L64.6331 52.7214C64.7028 52.5033 64.7737 52.2855 64.8456 52.0681L64.8826 51.9557C64.9477 51.7599 65.0137 51.5644 65.0806 51.3692C65.0966 51.3225 65.1127 51.276 65.129 51.2295C65.1742 51.0983 65.2197 50.9682 65.2652 50.8392C65.2817 50.7925 65.2981 50.7457 65.3146 50.6993C65.3723 50.5366 65.4309 50.3742 65.4902 50.212C65.5245 50.1184 65.559 50.0261 65.5934 49.9337C65.609 49.8915 65.6247 49.8486 65.6404 49.8068C65.6684 49.7323 65.6964 49.6592 65.7244 49.5856C65.747 49.5263 65.7695 49.4665 65.7922 49.4077C65.8174 49.3421 65.8427 49.2777 65.8681 49.2126C65.8934 49.1478 65.9186 49.0827 65.9438 49.0187C66.0382 48.7803 66.1326 48.5469 66.2275 48.3187L66.265 48.2296C66.3 48.1462 66.3348 48.0633 66.3698 47.9814C66.391 47.9319 66.412 47.8832 66.4331 47.8342C66.4583 47.7759 66.4838 47.7176 66.509 47.6599C66.5698 47.5211 66.6306 47.3839 66.6916 47.2497C66.701 47.229 66.7104 47.2092 66.7198 47.1885C66.772 47.0745 66.8248 46.9609 66.8782 46.8475C66.9077 46.7853 66.937 46.7233 66.9665 46.6622C66.9796 46.635 66.9926 46.6075 67.0058 46.5805C67.0202 46.5509 67.0345 46.5223 67.0489 46.493C67.1114 46.3654 67.1749 46.2384 67.2396 46.1118C67.2523 46.087 67.265 46.0617 67.2777 46.0372C67.3746 45.8493 67.4743 45.663 67.5768 45.4781L67.6131 45.4125C67.6604 45.3283 67.7075 45.2454 67.7548 45.1644C67.8049 45.0784 67.8557 44.9929 67.9074 44.9079C67.9687 44.8071 68.0314 44.7072 68.0954 44.6081L68.1128 44.5809C68.1802 44.4772 68.2492 44.3745 68.3198 44.2729C68.3738 44.1953 68.4274 44.1209 68.4804 44.0492C68.5117 44.0069 68.5424 43.9677 68.5734 43.9275C68.6059 43.8852 68.6386 43.8421 68.6709 43.8019C69.447 42.7912 69.9394 42.5127 70.3801 42.5457V42.5457Z" fill="#2D4900"/>
<path d="M61.54 86.4758C61.538 86.4744 61.536 86.4726 61.534 86.4712C61.4999 86.446 61.467 86.4194 61.4354 86.3913C61.4303 86.3868 61.4255 86.3818 61.4205 86.3772C61.3961 86.3546 61.3725 86.3313 61.3496 86.3072C61.3427 86.2998 61.3354 86.2938 61.3285 86.2863L61.3309 86.2873C61.0489 85.9793 60.8082 85.4658 60.6058 84.5097C60.6054 84.5077 60.6055 84.5059 60.605 84.5037C60.0717 82.4669 59.9466 78.9594 60.3482 74.2593C60.3758 73.9359 60.4058 73.6104 60.4377 73.2831C60.4387 73.2733 60.4395 73.2638 60.4405 73.2541C60.4718 72.9351 60.5052 72.6144 60.5404 72.2924L60.5464 72.2369C60.581 71.9217 60.6178 71.6048 60.6561 71.2869C60.6592 71.2615 60.6621 71.2361 60.6651 71.2107C60.703 70.8985 60.7428 70.5852 60.7842 70.271L60.7964 70.1772C60.8382 69.8612 60.8819 69.5444 60.9271 69.2269L60.9415 69.1249C60.9865 68.8105 61.0334 68.4953 61.0815 68.1797C61.0873 68.1424 61.0928 68.105 61.0986 68.0677C61.1466 67.7558 61.1962 67.4435 61.2471 67.1312C61.2539 67.0898 61.2604 67.0484 61.2673 67.007C61.318 66.6979 61.3703 66.3888 61.4239 66.0797L61.4443 65.9611C61.5273 65.4852 61.6134 65.01 61.7026 64.5353L61.7212 64.4364C61.8105 63.9634 61.9028 63.4911 61.9981 63.0193L62.0201 62.9109C62.1751 62.1483 62.338 61.3874 62.5087 60.6281L62.5204 60.5756C62.5855 60.2873 62.6518 60.0004 62.7187 59.7147L62.7459 59.5981C62.7836 59.4387 62.8219 59.2809 62.8601 59.1224L61.1932 53.5169L56.9784 57.9679C56.9389 58.1389 56.8986 58.3096 56.86 58.4811L56.857 58.4953C56.7724 58.8704 56.6898 59.2461 56.6092 59.6221C56.5853 59.7336 56.5626 59.8453 56.539 59.9569C56.483 60.2208 56.4279 60.485 56.3738 60.7494C56.3675 60.7805 56.3607 60.8114 56.3544 60.8425C56.3401 60.9132 56.3271 60.9839 56.313 61.0547C56.2405 61.4157 56.1698 61.7767 56.1012 62.1377C56.0773 62.2635 56.0533 62.389 56.0298 62.5147C55.9462 62.9608 55.8653 63.4073 55.7871 63.8544L55.7866 63.8573C55.768 63.9642 55.7508 64.0706 55.7325 64.1773C55.6902 64.4253 55.6476 64.6731 55.6072 64.9202C55.5889 65.0319 55.572 65.1429 55.5541 65.2544C55.5154 65.4953 55.4765 65.7365 55.4396 65.9765C55.4202 66.1032 55.4024 66.2289 55.3834 66.3553C55.35 66.5789 55.3161 66.8029 55.2842 67.0255C55.2642 67.165 55.2461 67.3034 55.2267 67.4424C55.1992 67.6412 55.1708 67.8407 55.1446 68.0384C55.1434 68.0473 55.1424 68.0563 55.1413 68.0652C55.1157 68.2585 55.0923 68.4501 55.068 68.6423C55.0485 68.7973 55.0279 68.9533 55.0092 69.1076C54.9849 69.3085 54.9627 69.5075 54.9398 69.7073C54.9234 69.8511 54.9058 69.9961 54.8901 70.1393C54.8667 70.3521 54.8458 70.5623 54.8242 70.7734C54.8111 70.9013 54.7968 71.0305 54.7844 71.1579C54.7514 71.4946 54.7208 71.829 54.6925 72.1605C54.2417 77.4368 54.4324 81.3879 55.2298 83.2853C55.4878 83.8995 55.7994 84.2749 56.1565 84.414L61.6738 86.564C61.6277 86.537 61.583 86.5075 61.54 86.4758Z" fill="#8CC63F"/>
<path d="M84.2528 53.6572C84.2525 53.6597 84.252 53.6622 84.2518 53.6647C84.247 53.7068 84.2403 53.7487 84.2318 53.7902C84.2305 53.7968 84.2287 53.8035 84.227 53.8101C84.2199 53.8418 84.2115 53.8739 84.202 53.9064C84.1991 53.9162 84.1974 53.9254 84.1944 53.9351C84.1944 53.9342 84.1942 53.9334 84.1942 53.9326C84.0685 54.3308 83.744 54.7959 83.0173 55.4494C83.0156 55.4508 83.0142 55.4515 83.0124 55.453C81.5152 56.9333 78.5402 58.7954 74.269 60.7977C73.9731 60.9363 73.6764 61.0731 73.3788 61.2082C73.3698 61.2123 73.3611 61.2164 73.3522 61.2204C73.0586 61.3535 72.7643 61.485 72.4693 61.6148L72.4182 61.6374C72.1264 61.7657 71.834 61.8923 71.5408 62.0174L71.4702 62.0477C71.1807 62.171 70.8894 62.2932 70.5969 62.4145C70.5678 62.4266 70.5386 62.4388 70.5094 62.4508C70.2149 62.5726 69.9186 62.6932 69.6213 62.8127L69.5257 62.8513C69.23 62.9697 68.9338 63.0868 68.6371 63.2026C68.6018 63.2163 68.5667 63.2302 68.5314 63.2438C68.2374 63.3582 67.9422 63.4714 67.6462 63.5835C67.607 63.5984 67.5678 63.6134 67.5285 63.6282C67.2352 63.7387 66.9415 63.8481 66.6473 63.9562L66.5342 63.9978C66.0491 64.1755 65.5627 64.3497 65.0751 64.5205C64.5861 64.6918 64.096 64.8597 63.6046 65.0242C63.2605 65.1394 62.9165 65.2527 62.573 65.3641L62.4569 65.4018C62.0996 65.5171 61.7417 65.6307 61.3833 65.7424C61.3662 65.7478 61.349 65.7534 61.332 65.7586C61.0508 65.846 60.7692 65.9322 60.4873 66.0172L60.3728 66.052C60.2159 66.0993 60.06 66.1448 59.9038 66.191L55.8827 70.4373L61.8447 71.862C62.0126 71.8106 62.1806 71.7602 62.3483 71.7079C62.353 71.7064 62.3575 71.705 62.3621 71.7034C62.7293 71.5891 63.0959 71.4728 63.4619 71.3546C63.5703 71.3196 63.6785 71.2834 63.7869 71.2481C64.0435 71.1643 64.3001 71.0803 64.5559 70.9948C64.5859 70.9848 64.6161 70.9752 64.646 70.9651C64.7144 70.9422 64.7822 70.9181 64.8506 70.895C65.3202 70.7361 65.7889 70.5745 66.2566 70.4102C66.6801 70.2611 67.1028 70.1095 67.5245 69.9554L67.5382 69.9504L67.541 69.9494C67.643 69.9119 67.7436 69.8737 67.8452 69.8362C68.081 69.749 68.317 69.6618 68.5512 69.5732C68.657 69.5333 68.7615 69.4924 68.8671 69.4522C69.0951 69.3651 69.3234 69.2784 69.5497 69.1902C69.6692 69.1436 69.787 69.0963 69.9058 69.0495C70.1162 68.9666 70.3271 68.884 70.5358 68.8002C70.6667 68.7478 70.7957 68.6944 70.9256 68.6416C71.1115 68.5662 71.2986 68.4909 71.4829 68.4146C71.4912 68.4113 71.4994 68.4076 71.5078 68.4042C71.6879 68.3296 71.8657 68.2542 72.0443 68.1792C72.1882 68.1186 72.3335 68.0583 72.4766 67.9974C72.6626 67.9181 72.8461 67.8378 73.0306 67.7576C73.1634 67.6998 73.2979 67.6427 73.4296 67.5847C73.6255 67.4986 73.8181 67.4115 74.0116 67.3247C74.129 67.2722 74.2479 67.2198 74.3646 67.167C74.6726 67.0271 74.9774 66.8865 75.2788 66.7453C80.0738 64.4974 83.4001 62.3567 84.6445 60.7174C85.0474 60.187 85.2167 59.7294 85.1586 59.3506L84.2619 53.4974C84.2619 53.5501 84.2589 53.6033 84.2528 53.6572V53.6572Z" fill="#FBB03B"/>
<path d="M44.4743 50.3969C44.4766 50.396 44.4791 50.3951 44.4813 50.394C44.5195 50.3775 44.5586 50.3621 44.5999 50.3486C44.6062 50.3465 44.613 50.3446 44.6195 50.3427C44.6506 50.333 44.6827 50.3242 44.7155 50.3163C44.7253 50.314 44.7342 50.3107 44.7441 50.3085C44.7434 50.309 44.7427 50.3095 44.742 50.3099C45.1497 50.2197 45.7147 50.2682 46.6439 50.5708C46.646 50.5715 46.6475 50.5725 46.6495 50.5732C48.6802 51.1297 51.7803 52.775 55.6498 55.4728C55.9162 55.6586 56.1831 55.8473 56.4504 56.0385L56.4743 56.0554C56.7349 56.242 56.9959 56.4313 57.2573 56.6228C57.2723 56.6338 57.2873 56.6446 57.3023 56.6558C57.558 56.8434 57.814 57.0335 58.0701 57.2256C58.0907 57.241 58.1111 57.2562 58.1316 57.2717C58.3831 57.4607 58.6347 57.6518 58.8859 57.8446L58.9611 57.9022C59.2139 58.0963 59.4664 58.2926 59.7186 58.4904L59.7998 58.5538C60.0497 58.7502 60.2992 58.9483 60.5483 59.1478C60.5779 59.1715 60.6073 59.195 60.6368 59.2187C60.8829 59.4162 61.1286 59.6153 61.3736 59.8154L61.4711 59.895C61.7134 60.0935 61.9549 60.2934 62.1958 60.4942L62.2884 60.5713C62.6847 60.9026 63.0788 61.2367 63.4704 61.5735C63.8359 61.8877 64.199 62.204 64.5592 62.5218L64.6421 62.5951C64.9437 62.8619 65.2439 63.1303 65.5427 63.4003C65.8223 63.6529 66.0997 63.9061 66.3746 64.1598L66.4143 64.1961C66.6315 64.3966 66.8466 64.5974 67.0606 64.7982C67.0898 64.8256 67.1189 64.853 67.1479 64.8801C67.2673 64.9922 67.3848 65.1046 67.5029 65.2167L73.1908 66.5758L71.4437 60.7003C71.3152 60.5806 71.1876 60.4604 71.0584 60.3411C71.0549 60.3378 71.0513 60.3346 71.0476 60.3314C70.7653 60.0707 70.4811 59.8114 70.1957 59.5534C70.1111 59.4769 70.0259 59.4014 69.941 59.3252C69.7404 59.1447 69.5391 58.9649 69.3371 58.7858C69.3134 58.7648 69.2899 58.7435 69.2662 58.7226C69.2122 58.6748 69.1574 58.6282 69.1031 58.5805C68.731 58.253 68.3568 57.9279 67.9804 57.6054C67.6396 57.3131 67.297 57.0229 66.9527 56.7348C66.9489 56.7315 66.9451 56.7285 66.9415 56.7253L66.9393 56.7234C66.8559 56.6538 66.7723 56.5858 66.6891 56.5166C66.4955 56.3559 66.3023 56.1952 66.1083 56.0366C66.0209 55.9649 65.9332 55.8949 65.8454 55.8236C65.6562 55.6696 65.4669 55.5153 65.2774 55.3635C65.1772 55.2832 65.0774 55.2049 64.9775 55.1254C64.8005 54.9846 64.6235 54.8432 64.4465 54.7043C64.3356 54.6173 64.2251 54.5322 64.1143 54.4461C63.9559 54.3229 63.7973 54.1985 63.6391 54.077C63.632 54.0714 63.6247 54.0661 63.6177 54.0606C63.463 53.9418 63.3087 53.8257 63.1545 53.7086C63.03 53.6142 62.9052 53.5184 62.7809 53.425C62.6191 53.3035 62.4578 53.1849 62.2962 53.0651C62.1798 52.9789 62.0631 52.891 61.9469 52.806C61.7743 52.6794 61.6027 52.5561 61.4307 52.4319C61.3264 52.3566 61.2217 52.2796 61.1176 52.2051C60.8425 52.0083 60.5683 51.8146 60.2953 51.6243C55.9512 48.5957 52.4341 46.7854 50.3923 46.5273C49.7315 46.4435 49.2506 46.5256 48.9515 46.7654C47.4113 47.9998 45.8711 49.2341 44.3308 50.4686C44.3774 50.4423 44.4253 50.4184 44.4743 50.3969V50.3969Z" fill="#0071BC"/>
<path d="M62.2733 61.6874C62.3383 61.3991 62.6517 60.0003 62.7187 59.7146L62.7459 59.5981C62.7835 59.4386 62.8219 59.2808 62.86 59.1223L61.1931 53.5169L56.9783 57.9678C56.9388 58.1389 56.8986 58.3095 56.8599 58.481L56.8569 58.4952" fill="#8CC63F"/>
<path d="M62.02 62.9108C62.175 62.1482 62.3379 61.3872 62.5086 60.628L62.5203 60.5754" fill="#8CC63F"/>
<path d="M140.083 37.6282C138.389 38.2722 137.077 39.274 136.147 40.6335C135.217 41.9692 134.752 43.6149 134.752 45.5708C134.752 46.4533 134.835 47.0734 135.002 47.4312C135.169 47.7651 135.253 47.9559 135.253 48.0036C133.965 48.0036 132.999 47.7412 132.355 47.2165C131.735 46.6679 131.425 45.7735 131.425 44.5332C131.425 43.0067 132.045 41.5279 133.285 40.0969C134.549 38.6419 136.159 37.4732 138.115 36.5907C140.071 35.6844 142.027 35.2312 143.982 35.2312C144.316 35.2312 144.793 35.255 145.413 35.3027L145.735 57.3056L153.249 35.4101H155.753L145.807 62.064H140.655L140.083 37.6282ZM157.157 62.2071C156.37 62.2071 155.702 61.9328 155.153 61.3842C154.605 60.8356 154.33 60.1678 154.33 59.3807C154.33 58.5936 154.605 57.9258 155.153 57.3772C155.702 56.8048 156.37 56.5185 157.157 56.5185C157.944 56.5185 158.612 56.8048 159.16 57.3772C159.733 57.9258 160.019 58.5936 160.019 59.3807C160.019 60.1678 159.733 60.8356 159.16 61.3842C158.612 61.9328 157.944 62.2071 157.157 62.2071ZM170.848 39.3098L176.144 38.5942L173.603 50.5438C174.748 50.4484 175.798 49.9475 176.752 49.0411C177.73 48.1348 178.493 47.0138 179.041 45.6781C179.59 44.3424 179.864 43.0306 179.864 41.7426C179.864 40.3115 179.495 39.1428 178.755 38.2365C178.016 37.3301 176.907 36.8769 175.428 36.8769C172.518 36.8769 170.24 37.6402 168.595 39.1667C166.973 40.6931 166.162 42.8278 166.162 45.5708C166.162 46.4533 166.245 47.0734 166.412 47.4312C166.579 47.7651 166.663 47.9559 166.663 48.0036C165.375 48.0036 164.409 47.7412 163.765 47.2165C163.144 46.6679 162.834 45.7735 162.834 44.5332C162.834 43.0067 163.455 41.5279 164.695 40.0969C165.959 38.6419 167.569 37.4732 169.525 36.5907C171.481 35.6844 173.436 35.2312 175.392 35.2312C177.276 35.2312 178.851 35.5532 180.115 36.1972C181.379 36.8411 182.309 37.6998 182.905 38.7731C183.526 39.8226 183.836 40.9913 183.836 42.2793C183.836 43.8296 183.406 45.3442 182.548 46.823C181.713 48.3017 180.508 49.5182 178.934 50.4722C177.36 51.4024 175.547 51.8675 173.496 51.8675H173.317L171.135 62.064H165.983L170.848 39.3098Z" fill="white"/>
<path d="M113.095 83.931C111.047 83.931 109.543 83.4144 108.582 82.3813C107.622 81.3481 107.141 79.6353 107.141 77.2427C107.141 75.3395 107.458 73.2914 108.093 71.0982C108.745 68.905 109.778 67.029 111.192 65.4702C112.624 63.8933 114.437 63.1048 116.63 63.1048C117.989 63.1048 119.086 63.4039 119.92 64.002C120.753 64.6002 121.17 65.5155 121.17 66.748C121.17 67.5274 121.016 68.1437 120.708 68.5968C120.4 69.0319 119.92 69.2494 119.267 69.2494C118.615 69.2494 118.098 69.0137 117.717 68.5425C118.044 68.3793 118.334 68.0531 118.587 67.5637C118.841 67.0743 118.968 66.5668 118.968 66.0412C118.968 65.5518 118.832 65.153 118.56 64.8449C118.306 64.5367 117.89 64.3827 117.31 64.3827C116.349 64.3827 115.434 65.0443 114.564 66.3674C113.694 67.6724 112.987 69.3219 112.443 71.3157C111.917 73.3095 111.654 75.2308 111.654 77.0796C111.654 78.4571 111.89 79.5084 112.361 80.2334C112.833 80.9584 113.684 81.3209 114.917 81.3209C115.986 81.3209 116.974 81.0853 117.881 80.614C118.787 80.1428 119.566 79.4721 120.219 78.6021L120.844 78.874C120.391 80.0159 119.72 80.9675 118.832 81.7288C117.944 82.49 116.992 83.0519 115.977 83.4144C114.962 83.7588 114.002 83.931 113.095 83.931ZM121.988 69.9019H125.903L125.55 71.5876C126.166 71.0438 126.719 70.6269 127.208 70.3369C127.716 70.0469 128.259 69.9019 128.839 69.9019C129.419 69.9019 129.872 70.1013 130.199 70.5C130.543 70.8988 130.715 71.3791 130.715 71.941C130.715 72.4666 130.543 72.9288 130.199 73.3276C129.854 73.7264 129.374 73.9257 128.758 73.9257C128.359 73.9257 128.087 73.8351 127.942 73.6539C127.815 73.4545 127.716 73.1735 127.643 72.811C127.589 72.5754 127.534 72.4032 127.48 72.2944C127.426 72.1857 127.326 72.1313 127.181 72.1313C126.8 72.1313 126.474 72.2129 126.202 72.376C125.948 72.521 125.613 72.7838 125.196 73.1645L123.021 83.496H119.106L121.988 69.9019ZM134.249 83.6591C132.908 83.6591 131.866 83.3147 131.122 82.626C130.379 81.9191 130.008 80.8225 130.008 79.3362C130.008 78.0855 130.252 76.708 130.742 75.2036C131.231 73.6992 132.029 72.4032 133.134 71.3157C134.24 70.21 135.645 69.6572 137.349 69.6572C139.342 69.6572 140.339 70.5272 140.339 72.2673C140.339 73.2823 140.049 74.2158 139.469 75.0677C138.889 75.9195 138.119 76.6083 137.158 77.134C136.198 77.6415 135.174 77.9315 134.086 78.004C134.05 78.5477 134.032 78.9103 134.032 79.0915C134.032 79.9797 134.186 80.5869 134.494 80.9131C134.802 81.2213 135.3 81.3753 135.989 81.3753C136.968 81.3753 137.802 81.1488 138.49 80.6956C139.197 80.2425 139.968 79.5537 140.801 78.6293H141.726C139.714 81.9825 137.222 83.6591 134.249 83.6591ZM134.304 76.6989C134.974 76.6627 135.609 76.4271 136.207 75.992C136.823 75.557 137.312 75.0042 137.675 74.3336C138.055 73.6629 138.246 72.956 138.246 72.2129C138.246 71.4697 138.019 71.0982 137.566 71.0982C136.914 71.0982 136.27 71.6691 135.636 72.811C135.019 73.9529 134.575 75.2489 134.304 76.6989ZM144.058 83.6591C143.025 83.6591 142.164 83.3057 141.475 82.5988C140.787 81.8919 140.442 80.7862 140.442 79.2818C140.442 77.9405 140.705 76.5358 141.231 75.0677C141.775 73.5814 142.572 72.3307 143.623 71.3157C144.693 70.2825 145.962 69.7659 147.43 69.7659C148.173 69.7659 148.726 69.8928 149.088 70.1466C149.451 70.4003 149.632 70.7357 149.632 71.1525V71.3429L149.931 69.9019H153.846L151.889 79.1459C151.816 79.4178 151.78 79.7078 151.78 80.0159C151.78 80.7953 152.151 81.185 152.895 81.185C153.402 81.185 153.837 80.9494 154.2 80.4781C154.58 80.0068 154.879 79.3906 155.097 78.6293H156.239C155.568 80.5869 154.734 81.9191 153.737 82.626C152.759 83.3147 151.771 83.6591 150.774 83.6591C150.013 83.6591 149.396 83.4507 148.925 83.0338C148.472 82.5988 148.2 81.9735 148.109 81.1578C147.584 81.901 146.995 82.5082 146.342 82.9794C145.708 83.4326 144.946 83.6591 144.058 83.6591ZM145.826 81.0219C146.279 81.0219 146.723 80.8134 147.158 80.3965C147.611 79.9615 147.919 79.3725 148.082 78.6293L149.387 72.4848C149.387 72.2491 149.297 72.0226 149.115 71.8051C148.934 71.5694 148.653 71.4516 148.273 71.4516C147.547 71.4516 146.895 71.8776 146.315 72.7295C145.735 73.5632 145.282 74.5783 144.956 75.7745C144.629 76.9527 144.466 77.9949 144.466 78.9012C144.466 79.8075 144.593 80.3875 144.847 80.6412C145.119 80.895 145.445 81.0219 145.826 81.0219ZM157.798 83.6591C156.928 83.6591 156.221 83.3872 155.678 82.8435C155.152 82.2997 154.889 81.4841 154.889 80.3965C154.889 79.9434 154.962 79.3543 155.107 78.6293L156.738 70.9894H155.841L156.058 69.9019H156.956L157.771 66.1499L161.795 65.6061L160.871 69.9019H162.502L162.284 70.9894H160.653L158.913 79.1459C158.841 79.4178 158.804 79.7078 158.804 80.0159C158.804 80.3784 158.886 80.6412 159.049 80.8044C159.23 80.9494 159.52 81.0219 159.919 81.0219C160.445 81.0219 160.934 80.8044 161.387 80.3694C161.84 79.9162 162.167 79.3362 162.366 78.6293H163.508C162.837 80.5869 161.976 81.9191 160.925 82.626C159.874 83.3147 158.832 83.6591 157.798 83.6591ZM166.896 68.4337C166.297 68.4337 165.79 68.2253 165.373 67.8084C164.956 67.3915 164.748 66.884 164.748 66.2859C164.748 65.6877 164.956 65.1802 165.373 64.7633C165.79 64.3283 166.297 64.1108 166.896 64.1108C167.494 64.1108 168.001 64.3283 168.418 64.7633C168.853 65.1802 169.071 65.6877 169.071 66.2859C169.071 66.884 168.853 67.3915 168.418 67.8084C168.001 68.2253 167.494 68.4337 166.896 68.4337ZM165.047 83.6591C164.177 83.6591 163.47 83.3872 162.926 82.8435C162.4 82.2997 162.138 81.4841 162.138 80.3965C162.138 79.9434 162.21 79.3543 162.355 78.6293L164.204 69.9019H168.119L166.162 79.1459C166.089 79.4178 166.053 79.7078 166.053 80.0159C166.053 80.3784 166.134 80.6412 166.297 80.8044C166.479 80.9494 166.769 81.0219 167.167 81.0219C167.693 81.0219 168.183 80.8044 168.636 80.3694C169.089 79.9162 169.415 79.3362 169.614 78.6293H170.756C170.086 80.5869 169.225 81.9191 168.173 82.626C167.122 83.3147 166.08 83.6591 165.047 83.6591ZM173.573 83.6048C172.232 83.6048 171.171 83.2604 170.392 82.5716C169.613 81.8828 169.223 80.7953 169.223 79.309C169.223 78.0765 169.477 76.708 169.984 75.2036C170.492 73.6992 171.307 72.4032 172.431 71.3157C173.555 70.21 174.969 69.6572 176.673 69.6572C178.993 69.6572 180.153 71.1072 180.153 74.0073V74.0345C180.207 74.0526 180.307 74.0617 180.452 74.0617C181.05 74.0617 181.739 73.9076 182.518 73.5995C183.297 73.2732 184.004 72.8835 184.639 72.4304L184.883 73.1645C184.358 73.7264 183.669 74.2067 182.817 74.6054C181.983 74.9861 181.068 75.258 180.071 75.4211C179.926 77.0705 179.554 78.5115 178.956 79.744C178.358 80.9766 177.588 81.9281 176.645 82.5988C175.703 83.2694 174.679 83.6048 173.573 83.6048ZM174.661 81.1578C175.096 81.1578 175.531 80.9131 175.966 80.4237C176.401 79.9162 176.781 79.2365 177.108 78.3846C177.434 77.5146 177.669 76.5539 177.814 75.5027C177.325 75.3939 177.08 75.0133 177.08 74.3608C177.08 73.6176 177.361 73.1282 177.923 72.8926C177.887 72.2945 177.796 71.8866 177.651 71.6691C177.506 71.4335 177.253 71.3157 176.89 71.3157C176.292 71.3157 175.712 71.7507 175.15 72.6207C174.588 73.4907 174.135 74.5329 173.791 75.7474C173.446 76.9618 173.274 78.0312 173.274 78.9556C173.274 79.8256 173.374 80.4147 173.573 80.7228C173.772 81.0128 174.135 81.1578 174.661 81.1578ZM191.367 83.6591C190.261 83.6591 189.445 83.3691 188.92 82.7891C188.412 82.191 188.158 81.4569 188.158 80.5869C188.158 80.2062 188.204 79.7803 188.294 79.309C188.385 78.8196 188.475 78.3484 188.566 77.8952C188.675 77.4421 188.747 77.1521 188.784 77.0252C188.929 76.3908 189.065 75.7655 189.191 75.1492C189.318 74.5329 189.382 74.0345 189.382 73.6539C189.382 72.7295 189.056 72.2673 188.403 72.2673C187.932 72.2673 187.515 72.5029 187.152 72.9742C186.79 73.4273 186.5 74.0254 186.282 74.7686L184.434 83.496H180.518L183.4 69.9019H187.315L187.016 71.3157C187.923 70.3006 188.983 69.7931 190.197 69.7931C191.122 69.7931 191.856 70.0469 192.4 70.5544C192.943 71.0619 193.215 71.8322 193.215 72.8654C193.215 73.391 193.152 73.9801 193.025 74.6326C192.898 75.267 192.717 76.0464 192.481 76.9708C192.336 77.5327 192.2 78.0855 192.073 78.6293C191.965 79.1549 191.91 79.5718 191.91 79.88C191.91 80.2425 191.992 80.5234 192.155 80.7228C192.318 80.9222 192.599 81.0219 192.998 81.0219C193.542 81.0219 193.977 80.8316 194.303 80.4509C194.629 80.0522 194.955 79.445 195.282 78.6293H196.424C195.753 80.6231 194.973 81.9644 194.085 82.6532C193.215 83.3238 192.309 83.6591 191.367 83.6591ZM198.378 83.6591C197.508 83.6591 196.774 83.496 196.176 83.1697C195.577 82.8254 195.133 82.3903 194.843 81.8647C194.553 81.3209 194.408 80.7591 194.408 80.179C194.408 79.5809 194.553 79.0643 194.843 78.6293C195.115 78.1762 195.451 77.8499 195.849 77.6505C196.556 76.3817 197.173 75.1039 197.698 73.817C198.224 72.512 198.722 71.1072 199.194 69.6028L203.217 69.0591C203.308 71.3791 203.462 73.8895 203.68 76.5902C203.77 77.6777 203.816 78.4662 203.816 78.9556C203.816 80.0612 203.535 80.9675 202.973 81.6744C202.411 82.3813 201.713 82.8888 200.879 83.1969C200.064 83.5051 199.23 83.6591 198.378 83.6591ZM197.508 81.5113C198.178 81.5113 198.74 81.3119 199.194 80.9131C199.647 80.5144 199.873 79.8709 199.873 78.9828C199.873 78.439 199.819 77.6777 199.71 76.6989C199.529 74.6326 199.411 73.246 199.357 72.5391C198.922 73.9711 198.188 75.6839 197.154 77.6777C197.571 77.8952 197.78 78.2124 197.78 78.6293C197.78 78.9737 197.662 79.2818 197.426 79.5537C197.209 79.8256 196.928 79.9615 196.583 79.9615C196.203 79.9615 195.958 79.8437 195.849 79.6081C195.849 80.2606 195.976 80.7409 196.23 81.0491C196.502 81.3572 196.928 81.5113 197.508 81.5113Z" fill="white"/>
</g>
<defs>
<clipPath id="clip0">
<rect width="204.625" height="123" fill="white"/>
</clipPath>
</defs>
</svg>
